<?xml version="1.0" encoding="UTF-8" standalone="no"?><!-- Generator: Gravit.io --><svg xmlns="http://www.w3.org/2000/svg" xmlns:xlink="http://www.w3.org/1999/xlink" style="isolation:isolate" viewBox="0 0 1000 1000" width="1000pt" height="1000pt"><defs><clipPath id="_clipPath_41yMb0kp8PXyLiipES33Q1R3HsAxUwOz"><rect width="1000" height="1000"/></clipPath></defs><g clip-path="url(#_clipPath_41yMb0kp8PXyLiipES33Q1R3HsAxUwOz)"><path d=" M 40.5 500 C 40.49 468.98 43.61 438.04 49.82 407.65 C 55.87 378.15 64.82 349.33 76.56 321.59 C 99.64 267.14 133.02 217.65 174.85 175.85 C 216.65 134.02 266.14 100.64 320.59 77.56 C 348.33 65.82 377.15 56.87 406.65 50.82 C 437.04 44.61 467.98 41.49 499 41.5 C 530.02 41.49 560.96 44.61 591.35 50.82 C 620.85 56.87 649.67 65.82 677.41 77.56 C 731.86 100.64 781.35 134.02 823.15 175.85 C 864.98 217.65 898.36 267.14 921.44 321.59 C 933.18 349.33 942.13 378.15 948.18 407.65 C 954.39 438.04 957.51 468.98 957.5 500 C 957.51 531.02 954.39 561.96 948.18 592.35 C 942.13 621.85 933.18 650.67 921.44 678.41 C 898.36 732.86 864.98 782.35 823.15 824.15 C 781.35 865.98 731.86 899.36 677.41 922.44 C 649.67 934.18 620.85 943.13 591.35 949.18 C 560.96 955.39 530.02 958.51 499 958.5 C 467.98 958.51 437.04 955.39 406.65 949.18 C 377.15 943.13 348.33 934.18 320.59 922.44 C 266.14 899.36 216.65 865.98 174.85 824.15 C 133.02 782.35 99.64 732.86 76.56 678.41 C 64.82 650.67 55.87 621.85 49.82 592.35 C 43.61 561.96 40.49 531.02 40.5 500 Z  M 57.5 500 C 57.49 470.13 60.49 440.33 66.48 411.06 C 72.29 382.67 80.92 354.92 92.21 328.22 C 114.44 275.79 146.58 228.13 186.87 187.87 C 227.13 147.58 274.79 115.44 327.22 93.21 C 353.92 81.92 381.67 73.29 410.06 67.48 C 439.33 61.49 469.13 58.49 499 58.5 C 528.87 58.49 558.67 61.49 587.94 67.48 C 616.33 73.29 644.08 81.92 670.78 93.21 C 723.21 115.44 770.87 147.58 811.13 187.87 C 851.42 228.13 883.56 275.79 905.79 328.22 C 917.08 354.92 925.71 382.67 931.52 411.06 C 937.51 440.33 940.51 470.13 940.5 500 C 940.51 529.87 937.51 559.67 931.52 588.94 C 925.71 617.33 917.08 645.08 905.79 671.78 C 883.56 724.21 851.42 771.87 811.13 812.13 C 770.87 852.42 723.21 884.56 670.78 906.79 C 644.08 918.08 616.33 926.71 587.94 932.52 C 558.67 938.51 528.87 941.51 499 941.5 C 469.13 941.51 439.33 938.51 410.06 932.52 C 381.67 926.71 353.92 918.08 327.22 906.79 C 274.79 884.56 227.13 852.42 186.87 812.13 C 146.58 771.87 114.44 724.21 92.21 671.78 C 80.92 645.08 72.29 617.33 66.48 588.94 C 60.49 559.67 57.49 529.87 57.5 500 Z " fill-rule="evenodd" fill="rgb(0,0,0)"/><path d=" M 335.074 508.582 L 387.896 360.035 M 329.456 524.405 L 74.515 343.928 L 393.619 343.928 L 497.033 53.07 L 601.557 343.928 L 923.485 343.928 L 666.783 525.399 L 781.414 844.36 L 498.699 644.214 L 215.734 844.246 L 329.456 524.405 Z  M 607.348 360.035 L 661.108 509.614 M 484.706 634.313 L 343.228 534.164 M 410.866 343.928 L 584.291 343.928 M 653.011 535.13 L 512.691 634.322 M 498.699 624.421 L 348.856 518.341 L 405.143 360.035 L 590.082 360.035 L 647.335 519.345 L 498.699 624.421 Z  M 410.866 343.928 L 497.11 101.354 L 584.291 343.928 M 653.011 535.13 L 748.701 801.401 L 512.691 634.322 M 335.074 508.582 L 125.241 360.035 L 387.896 360.035 M 607.348 360.035 L 872.702 360.035 L 661.108 509.614 M 484.706 634.313 L 248.179 801.515 L 343.228 534.164" fill-rule="evenodd" fill="rgb(0,0,0)"/><path d=" M 10.5 500 C 10.49 466.95 13.81 433.99 20.43 401.61 C 26.87 370.18 36.41 339.47 48.92 309.92 C 61.22 280.87 76.31 253.08 93.98 226.95 C 111.52 201 131.5 176.79 153.64 154.64 C 175.79 132.5 200 112.52 225.95 94.98 C 252.08 77.31 279.87 62.22 308.92 49.92 C 338.47 37.41 369.18 27.87 400.61 21.43 C 432.99 14.81 465.95 11.49 499 11.5 C 532.05 11.49 565.01 14.81 597.39 21.43 C 628.82 27.87 659.53 37.41 689.08 49.92 C 718.13 62.22 745.92 77.31 772.05 94.98 C 798 112.52 822.21 132.5 844.36 154.64 C 866.5 176.79 886.48 201 904.02 226.95 C 921.69 253.08 936.78 280.87 949.08 309.92 C 961.59 339.47 971.13 370.18 977.57 401.61 C 984.19 433.99 987.51 466.95 987.5 500 C 987.51 533.05 984.19 566.01 977.57 598.39 C 971.13 629.82 961.59 660.53 949.08 690.08 C 936.78 719.13 921.69 746.92 904.02 773.05 C 886.48 799 866.5 823.21 844.36 845.36 C 822.21 867.5 798 887.48 772.05 905.02 C 745.92 922.69 718.13 937.78 689.08 950.08 C 659.53 962.59 628.82 972.13 597.39 978.57 C 565.01 985.19 532.05 988.51 499 988.5 C 465.95 988.51 432.99 985.19 400.61 978.57 C 369.18 972.13 338.47 962.59 308.92 950.08 C 279.87 937.78 252.08 922.69 225.95 905.02 C 200 887.48 175.79 867.5 153.64 845.36 C 131.5 823.21 111.52 799 93.98 773.05 C 76.31 746.92 61.22 719.13 48.92 690.08 C 36.41 660.53 26.87 629.82 20.43 598.39 C 13.81 566.01 10.49 533.05 10.5 500 Z  M 27.5 500 C 27.49 468.1 30.7 436.27 37.09 405.02 C 43.3 374.69 52.51 345.06 64.57 316.55 C 76.45 288.51 91.01 261.69 108.07 236.47 C 125 211.42 144.28 188.04 165.67 166.67 C 187.04 145.28 210.42 126 235.47 109.07 C 260.69 92.01 287.51 77.45 315.55 65.57 C 344.06 53.51 373.69 44.3 404.02 38.09 C 435.27 31.7 467.1 28.49 499 28.5 C 530.9 28.49 562.73 31.7 593.98 38.09 C 624.31 44.3 653.94 53.51 682.45 65.57 C 710.49 77.45 737.31 92.01 762.53 109.07 C 787.58 126 810.96 145.28 832.33 166.67 C 853.72 188.04 873 211.42 889.93 236.47 C 906.99 261.69 921.55 288.51 933.43 316.55 C 945.49 345.06 954.7 374.69 960.91 405.02 C 967.3 436.27 970.51 468.1 970.5 500 C 970.51 531.9 967.3 563.73 960.91 594.98 C 954.7 625.31 945.49 654.94 933.43 683.45 C 921.55 711.49 906.99 738.31 889.93 763.53 C 873 788.58 853.72 811.96 832.33 833.33 C 810.96 854.72 787.58 874 762.53 890.93 C 737.31 907.99 710.49 922.55 682.45 934.43 C 653.94 946.49 624.31 955.7 593.98 961.91 C 562.73 968.3 530.9 971.51 499 971.5 C 467.1 971.51 435.27 968.3 404.02 961.91 C 373.69 955.7 344.06 946.49 315.55 934.43 C 287.51 922.55 260.69 907.99 235.47 890.93 C 210.42 874 187.04 854.72 165.67 833.33 C 144.28 811.96 125 788.58 108.07 763.53 C 91.01 738.31 76.45 711.49 64.57 683.45 C 52.51 654.94 43.3 625.31 37.09 594.98 C 30.7 563.73 27.49 531.9 27.5 500 Z " fill-rule="evenodd" fill="rgb(0,0,0)"/></g></svg>