<?xml version="1.0" encoding="UTF-8" standalone="no"?><!-- Generator: Gravit.io --><svg xmlns="http://www.w3.org/2000/svg" xmlns:xlink="http://www.w3.org/1999/xlink" style="isolation:isolate" viewBox="0 0 3000 3000" width="3000pt" height="3000pt"><defs><clipPath id="_clipPath_i9SnbLnPOVSMszPsPjkeVlZh7g8utCPe"><rect width="3000" height="3000"/></clipPath></defs><g clip-path="url(#_clipPath_i9SnbLnPOVSMszPsPjkeVlZh7g8utCPe)"><path d=" M 2158.076 1850.049 Q 2371.121 2248.076 2622.836 2745.26 C 2632.808 2764.957 2622.996 2781.697 2600.938 2782.621 C 2409.014 2790.657 1892.405 2519.095 1567.725 2331.076 M 2144.85 1857.13 C 2161.42 1888.07 2177.93 1919.05 2194.39 1950.04 C 2211.76 1982.74 2229.08 2015.46 2246.34 2048.2 C 2258.81 2071.86 2271.26 2095.52 2283.68 2119.2 C 2296.57 2143.76 2309.43 2168.34 2322.27 2192.93 C 2367.82 2280.2 2413.09 2367.62 2458.07 2455.19 L 2609.47 2752.08 C 2610.24 2753.57 2610.85 2755.15 2611.28 2756.77 C 2611.58 2757.88 2611.73 2759.03 2611.74 2760.18 C 2611.74 2761.11 2611.57 2762.04 2611.21 2762.9 C 2610.92 2763.55 2610.49 2764.13 2609.96 2764.62 C 2609.02 2765.43 2607.94 2766.06 2606.77 2766.46 C 2605.86 2766.79 2604.92 2767.05 2603.96 2767.23 C 2602.76 2767.45 2601.55 2767.59 2600.34 2767.63 C 2597.69 2767.74 2595.05 2767.8 2592.4 2767.79 C 2586.28 2767.78 2580.16 2767.54 2574.05 2767.07 C 2567.26 2766.55 2560.49 2765.82 2553.75 2764.9 C 2546.35 2763.88 2538.99 2762.69 2531.65 2761.31 C 2523.7 2759.82 2515.78 2758.17 2507.89 2756.36 C 2499.42 2754.42 2490.99 2752.34 2482.59 2750.11 C 2473.65 2747.74 2464.74 2745.24 2455.87 2742.61 C 2436.62 2736.88 2417.51 2730.71 2398.54 2724.1 C 2377.8 2716.89 2357.19 2709.31 2336.72 2701.36 C 2314.76 2692.85 2292.92 2684.02 2271.2 2674.9 L 2202.73 2645.22 L 2132.05 2612.84 L 2059.9 2578.28 C 2035.53 2566.37 2011.23 2554.29 1987.03 2542.04 L 1842 2466.6 L 1702.79 2390.58 L 1575.24 2318.09" fill-rule="evenodd" fill="rgb(0,0,0)"/><path d=" M 789.122 1699.867 Q 696.652 1583.052 682.933 1498.434 Q 646.77 1275.387 844.705 868.024 Q 528.201 889.765 193.146 912.78 C 149.097 915.806 135.075 889.762 161.854 854.656 Q 780.946 43.076 1130.1 264.771 C 1198.205 308.014 1288.979 409.387 1402.461 568.988 M 800.88 1690.56 C 787.11 1673.16 773.97 1655.28 761.48 1636.94 C 751.79 1622.71 742.76 1608.04 734.41 1592.98 C 724.56 1575.22 716.02 1556.75 708.86 1537.74 C 703.77 1524.25 700.05 1510.27 697.74 1496.03 C 696.23 1486.71 695.05 1477.33 694.22 1467.92 C 693.29 1457.57 692.72 1447.18 692.48 1436.79 C 692.3 1428.96 692.3 1421.13 692.48 1413.31 C 692.67 1404.87 693.04 1396.43 693.59 1388 C 693.99 1381.78 694.49 1375.56 695.08 1369.35 C 695.7 1362.78 696.41 1356.22 697.21 1349.68 C 697.8 1344.86 698.44 1340.05 699.13 1335.24 C 699.84 1330.23 700.6 1325.23 701.4 1320.24 C 702 1316.55 702.62 1312.86 703.27 1309.18 C 703.93 1305.38 704.62 1301.59 705.33 1297.81 C 708.02 1283.56 711.03 1269.38 714.36 1255.28 C 718.08 1239.52 722.12 1223.83 726.47 1208.24 C 729.82 1196.27 733.33 1184.34 737.02 1172.47 C 741.01 1159.6 745.18 1146.77 749.51 1134.01 C 752.64 1124.79 755.85 1115.6 759.14 1106.44 C 762.62 1096.75 766.18 1087.08 769.83 1077.45 C 772.47 1070.46 775.16 1063.48 777.89 1056.52 C 780.73 1049.27 783.6 1042.04 786.52 1034.83 C 788.66 1029.54 790.83 1024.25 793.01 1018.98 C 795.26 1013.55 797.52 1008.13 799.81 1002.72 C 808.49 982.2 817.45 961.81 826.68 941.54 C 836.91 919.09 847.42 896.77 858.2 874.58 C 860.53 869.77 860.13 864.07 857.14 859.63 C 854.15 855.2 849.01 852.69 843.68 853.06 L 527.17 874.8 L 192.12 897.82 C 192.11 897.82 192.11 897.82 192.1 897.82 C 190.19 897.95 188.28 898.02 186.37 898.02 C 184.02 898.03 181.67 897.9 179.33 897.64 C 177.43 897.43 175.55 897.09 173.69 896.63 C 172.26 896.27 170.85 895.79 169.49 895.2 C 168.51 894.77 167.56 894.24 166.68 893.63 C 166.08 893.2 165.52 892.71 165.03 892.16 C 164.66 891.75 164.35 891.3 164.09 890.81 C 163.84 890.3 163.65 889.77 163.52 889.22 C 163.35 888.46 163.26 887.69 163.26 886.91 C 163.27 885.59 163.43 884.28 163.72 882.99 C 164.13 881.17 164.7 879.4 165.43 877.68 C 166.37 875.45 167.47 873.28 168.71 871.2 C 170.25 868.63 171.94 866.15 173.77 863.77 L 242.9 775.32 C 263.81 749.21 285.06 723.37 306.64 697.82 C 325.97 674.95 345.6 652.32 365.52 629.96 C 383.37 609.92 401.52 590.15 419.95 570.64 C 442.84 546.41 466.23 522.66 490.1 499.41 C 510.66 479.38 531.7 459.85 553.19 440.83 C 571.8 424.36 590.8 408.35 610.17 392.8 C 627 379.29 644.19 366.26 661.73 353.7 C 685.34 336.8 709.69 320.95 734.7 306.19 C 755.14 294.13 776.21 283.17 797.83 273.36 C 815.95 265.14 834.49 257.9 853.39 251.67 C 869.52 246.35 885.97 242.05 902.64 238.78 C 913.19 236.71 923.81 235.11 934.5 233.97 C 944.41 232.92 954.37 232.34 964.34 232.23 C 973.79 232.12 983.24 232.46 992.66 233.24 C 1001.74 233.99 1010.78 235.19 1019.74 236.82 C 1028.57 238.44 1037.32 240.48 1045.96 242.94 C 1054.64 245.42 1063.19 248.32 1071.58 251.63 C 1080.19 255.02 1088.62 258.82 1096.85 263.03 C 1105.47 267.44 1113.88 272.24 1122.05 277.43 C 1126.25 280.1 1130.37 282.88 1134.42 285.77 C 1138.84 288.92 1143.18 292.17 1147.44 295.51 C 1152.06 299.14 1156.61 302.85 1161.08 306.65 C 1165.9 310.75 1170.65 314.93 1175.32 319.18 C 1185.67 328.64 1195.76 338.4 1205.55 348.43 C 1216.66 359.79 1227.5 371.39 1238.08 383.24 C 1249.91 396.47 1261.49 409.92 1272.83 423.58 C 1285.38 438.68 1297.7 453.97 1309.79 469.44 C 1323.05 486.4 1336.09 503.52 1348.93 520.81 C 1362.89 539.62 1376.66 558.58 1390.23 577.68" fill-rule="evenodd" fill="rgb(0,0,0)"/><path d=" M 1836.9 264.771 Q 2186.054 43.076 2805.146 854.656 C 2831.925 889.762 2817.903 915.806 2773.854 912.78 Q 2438.799 889.765 2122.295 868.024 Q 2320.23 1275.387 2284.067 1498.434 Q 2247.905 1721.481 1665.075 2168.039 C 1542.541 2255.503 635.157 2793.888 366.062 2782.621 C 344.004 2781.697 334.192 2764.956 344.164 2745.26 Q 1487.747 486.465 1836.9 264.771 Z  M 1844.94 277.43 C 1852.96 272.34 1861.2 267.62 1869.65 263.28 C 1877.73 259.14 1885.99 255.38 1894.42 252.02 C 1902.65 248.74 1911.02 245.86 1919.52 243.38 C 1927.97 240.92 1936.54 238.86 1945.18 237.21 C 1953.94 235.55 1962.77 234.3 1971.64 233.48 C 1980.83 232.63 1990.05 232.2 1999.27 232.21 C 2008.97 232.21 2018.66 232.66 2028.32 233.56 C 2038.69 234.53 2049 235.95 2059.25 237.81 C 2067.9 239.39 2076.5 241.25 2085.02 243.41 C 2094.23 245.74 2103.37 248.37 2112.42 251.28 C 2119.32 253.5 2126.18 255.88 2132.98 258.41 C 2140.24 261.11 2147.44 263.97 2154.57 266.98 C 2159.9 269.22 2165.19 271.54 2170.44 273.94 C 2175.97 276.47 2181.45 279.07 2186.9 281.75 C 2190.95 283.74 2194.97 285.77 2198.97 287.84 C 2203.13 289.99 2207.26 292.18 2211.37 294.41 C 2214.44 296.07 2217.49 297.75 2220.52 299.45 C 2223.65 301.21 2226.76 302.98 2229.86 304.77 C 2241.79 311.68 2253.54 318.87 2265.11 326.36 C 2277.97 334.68 2290.65 343.29 2303.13 352.17 C 2307.12 355.01 2311.08 357.88 2315.03 360.77 C 2319.11 363.76 2323.17 366.77 2327.21 369.81 C 2342.07 380.99 2356.69 392.5 2371.04 404.32 C 2387.18 417.62 2403.06 431.22 2418.66 445.14 C 2433.06 457.98 2447.25 471.05 2461.22 484.35 C 2476.68 499.06 2491.93 514.01 2506.95 529.17 C 2517.76 540.08 2528.46 551.09 2539.05 562.21 C 2550.4 574.12 2561.64 586.13 2572.77 598.24 C 2580.79 606.98 2588.77 615.77 2596.69 624.6 C 2604.99 633.87 2613.24 643.18 2621.44 652.55 C 2627.41 659.37 2633.35 666.21 2639.26 673.08 C 2645.37 680.18 2651.46 687.31 2657.51 694.46 C 2679.55 720.48 2701.23 746.79 2722.55 773.39 C 2746.47 803.23 2770.04 833.36 2793.23 863.77 C 2795.06 866.15 2796.75 868.63 2798.29 871.2 C 2799.53 873.28 2800.63 875.45 2801.57 877.68 C 2802.3 879.4 2802.87 881.17 2803.28 882.99 C 2803.57 884.28 2803.73 885.59 2803.74 886.91 C 2803.74 887.69 2803.65 888.46 2803.48 889.22 C 2803.35 889.77 2803.16 890.3 2802.91 890.81 C 2802.65 891.3 2802.34 891.75 2801.97 892.16 C 2801.48 892.71 2800.92 893.2 2800.32 893.63 C 2799.44 894.24 2798.49 894.77 2797.51 895.2 C 2796.15 895.79 2794.74 896.27 2793.31 896.63 C 2791.45 897.09 2789.57 897.43 2787.67 897.64 C 2785.33 897.9 2782.98 898.03 2780.63 898.02 C 2778.72 898.02 2776.81 897.95 2774.9 897.82 C 2774.89 897.82 2774.89 897.82 2774.88 897.82 L 2439.83 874.8 L 2123.32 853.06 C 2117.99 852.69 2112.85 855.2 2109.86 859.63 C 2106.87 864.07 2106.47 869.77 2108.8 874.58 C 2123.87 905.59 2138.39 936.87 2152.36 968.4 C 2164.43 995.67 2175.96 1023.18 2186.91 1050.93 C 2196.43 1075.02 2205.45 1099.3 2213.98 1123.77 C 2221.4 1145.05 2228.31 1166.51 2234.73 1188.12 C 2244.62 1221.45 2253.06 1255.19 2260.01 1289.25 C 2265.51 1316.14 2269.52 1343.31 2272.04 1370.64 C 2274.16 1393.58 2274.96 1416.63 2274.44 1439.66 C 2274.01 1458.55 2272.28 1477.39 2269.26 1496.03 C 2268.58 1500.22 2267.77 1504.39 2266.82 1508.53 C 2265.77 1513.1 2264.58 1517.63 2263.26 1522.13 C 2262.28 1525.5 2261.22 1528.85 2260.09 1532.18 C 2258.88 1535.77 2257.6 1539.34 2256.25 1542.88 C 2255.25 1545.49 2254.22 1548.09 2253.15 1550.67 C 2252.03 1553.41 2250.87 1556.12 2249.67 1558.83 C 2248.8 1560.82 2247.9 1562.8 2246.98 1564.77 C 2246.03 1566.83 2245.06 1568.87 2244.08 1570.91 C 2240.56 1578.19 2236.83 1585.37 2232.91 1592.44 C 2228.4 1600.56 2223.7 1608.56 2218.81 1616.45 C 2216.17 1620.7 2213.48 1624.92 2210.73 1629.11 C 2207.79 1633.61 2204.8 1638.07 2201.76 1642.5 C 2199.56 1645.7 2197.33 1648.89 2195.08 1652.07 C 2192.72 1655.4 2190.33 1658.72 2187.92 1662.01 C 2179.75 1673.18 2171.33 1684.16 2162.67 1694.95 C 2152.58 1707.53 2142.25 1719.91 2131.68 1732.09 C 2128.73 1735.49 2125.76 1738.88 2122.78 1742.25 C 2119.67 1745.76 2116.55 1749.26 2113.41 1752.74 C 2102.38 1764.97 2091.16 1777.04 2079.76 1788.93 C 2066.78 1802.47 2053.62 1815.85 2040.28 1829.04 C 2027.95 1841.24 2015.48 1853.3 2002.88 1865.23 C 1988.83 1878.53 1974.66 1891.68 1960.36 1904.7 C 1950.13 1914 1939.84 1923.24 1929.5 1932.41 C 1918.39 1942.27 1907.21 1952.05 1895.98 1961.77 C 1887.92 1968.75 1879.83 1975.7 1871.71 1982.61 C 1863.18 1989.87 1854.62 1997.09 1846.04 2004.28 C 1839.81 2009.5 1833.57 2014.71 1827.31 2019.89 C 1820.84 2025.26 1814.35 2030.61 1807.85 2035.94 C 1784.32 2055.24 1760.62 2074.33 1736.76 2093.21 L 1656.17 2155.97 C 1651.86 2159.02 1647.51 2162.02 1643.13 2164.97 C 1637.28 2168.9 1631.41 2172.79 1625.5 2176.63 C 1609.88 2186.76 1594.16 2196.74 1578.34 2206.57 C 1558.02 2219.21 1537.62 2231.71 1517.13 2244.07 L 1443.95 2287.68 L 1269.79 2387.49 L 1172.88 2440.85 L 1072.12 2494.59 L 969.54 2547.31 L 867.18 2597.58 L 767.09 2643.96 C 750.97 2651.18 734.78 2658.27 718.54 2665.24 C 702.86 2671.98 687.12 2678.57 671.33 2685.03 C 656.18 2691.22 640.98 2697.25 625.71 2703.12 C 611.19 2708.71 596.61 2714.12 581.96 2719.35 C 568.16 2724.29 554.28 2729.02 540.34 2733.54 C 527.35 2737.76 514.28 2741.75 501.14 2745.51 C 489.04 2748.97 476.87 2752.16 464.64 2755.08 C 453.54 2757.73 442.37 2760.06 431.14 2762.08 C 421.15 2763.88 411.1 2765.31 401 2766.36 C 396.45 2766.82 391.89 2767.18 387.32 2767.43 C 383.08 2767.67 378.85 2767.79 374.61 2767.8 C 371.96 2767.8 369.31 2767.74 366.66 2767.63 C 365.45 2767.59 364.24 2767.45 363.04 2767.23 C 362.08 2767.05 361.14 2766.79 360.23 2766.46 C 359.06 2766.06 357.98 2765.43 357.04 2764.62 C 356.51 2764.13 356.08 2763.55 355.79 2762.9 C 355.43 2762.04 355.26 2761.11 355.26 2760.18 C 355.27 2759.03 355.42 2757.88 355.72 2756.77 C 356.15 2755.14 356.76 2753.57 357.53 2752.08 L 506.95 2459.04 C 551.43 2372.41 596.2 2285.92 641.24 2199.58 C 681.26 2122.87 721.53 2046.29 762.04 1969.85 C 798.04 1901.93 834.28 1834.15 870.77 1766.49 C 932 1652.95 994.06 1539.86 1056.93 1427.23 C 1106.59 1338.27 1157.06 1249.77 1208.34 1161.75 C 1248.88 1092.15 1290.06 1022.93 1331.88 954.1 C 1364.93 899.68 1398.61 845.66 1432.92 792.02 C 1460.07 749.58 1487.72 707.45 1515.85 665.64 C 1538.12 632.55 1560.87 599.78 1584.1 567.35 C 1606.44 536.18 1629.33 505.42 1652.79 475.08 C 1670.37 452.32 1688.51 430 1707.18 408.12 C 1719.21 394.03 1731.52 380.18 1744.11 366.59 C 1754.04 355.86 1764.25 345.39 1774.72 335.18 C 1781.79 328.29 1789.01 321.54 1796.38 314.95 C 1802.44 309.53 1808.64 304.26 1814.97 299.15 C 1820.24 294.91 1825.6 290.81 1831.07 286.85 C 1835.6 283.57 1840.22 280.43 1844.94 277.43 Z " fill-rule="evenodd" fill="rgb(0,0,0)"/><path d=" M 892 2780.947 Q 1230.943 2436.611 1483 2433 Q 1735.057 2429.389 2075 2750 Q 1699.34 2894.976 1483 2900 Q 1266.66 2905.024 892 2780.947 Z  M 919.79 2774.27 C 940.72 2753.43 962.03 2732.97 983.71 2712.9 C 1007.3 2691.07 1031.48 2669.87 1056.23 2649.35 C 1077.51 2631.69 1099.27 2614.62 1121.49 2598.15 C 1140.67 2583.92 1160.3 2570.3 1180.34 2557.3 C 1210.38 2537.82 1241.51 2520.07 1273.56 2504.12 C 1299.16 2491.39 1325.63 2480.48 1352.77 2471.48 C 1364.54 2467.58 1376.44 2464.1 1388.45 2461.04 C 1399.48 2458.23 1410.62 2455.85 1421.83 2453.89 C 1432.28 2452.07 1442.79 2450.66 1453.35 2449.64 C 1463.28 2448.69 1473.24 2448.14 1483.21 2448 C 1492.9 2447.86 1502.58 2448.09 1512.25 2448.68 C 1522.45 2449.31 1532.62 2450.31 1542.74 2451.67 C 1553.52 2453.11 1564.24 2454.95 1574.89 2457.17 C 1586.36 2459.56 1597.75 2462.34 1609.04 2465.5 C 1614.57 2467.05 1620.08 2468.68 1625.56 2470.4 C 1631.27 2472.19 1636.95 2474.06 1642.61 2476.02 C 1646.87 2477.5 1651.12 2479.02 1655.35 2480.59 C 1659.72 2482.22 1664.08 2483.88 1668.41 2485.6 C 1671.68 2486.89 1674.94 2488.2 1678.19 2489.55 C 1681.52 2490.92 1684.83 2492.32 1688.14 2493.75 C 1701.32 2499.43 1714.33 2505.47 1727.16 2511.89 C 1741.33 2518.97 1755.32 2526.42 1769.11 2534.22 C 1780.24 2540.52 1791.26 2547.03 1802.15 2553.75 C 1813.94 2561.03 1825.61 2568.51 1837.14 2576.2 C 1845.54 2581.8 1853.88 2587.51 1862.14 2593.31 C 1870.9 2599.45 1879.58 2605.69 1888.19 2612.03 C 1894.48 2616.66 1900.72 2621.33 1906.94 2626.06 C 1913.41 2630.98 1919.84 2635.95 1926.23 2640.97 C 1930.94 2644.66 1935.62 2648.37 1940.29 2652.12 C 1945.09 2655.97 1949.88 2659.85 1954.64 2663.75 C 1972.56 2678.44 1990.21 2693.45 2007.58 2708.78 C 2020.92 2720.56 2034.13 2732.49 2047.21 2744.57 C 2025.68 2752.74 2004.09 2760.72 1982.43 2768.53 C 1956.59 2777.84 1930.64 2786.83 1904.58 2795.49 C 1881.47 2803.17 1858.25 2810.55 1834.95 2817.65 C 1814.27 2823.94 1793.51 2829.94 1772.66 2835.65 C 1741.53 2844.16 1710.2 2851.91 1678.68 2858.87 C 1652.94 2864.55 1627.04 2869.46 1601 2873.58 C 1579.56 2876.97 1558.01 2879.71 1536.4 2881.79 C 1518.53 2883.52 1500.6 2884.59 1482.65 2885 C 1478.57 2885.1 1474.49 2885.16 1470.4 2885.18 C 1466.14 2885.21 1461.88 2885.2 1457.62 2885.15 C 1442.76 2884.99 1427.91 2884.43 1413.08 2883.49 C 1395.98 2882.39 1378.9 2880.9 1361.87 2879.02 C 1345.87 2877.25 1329.9 2875.18 1313.98 2872.81 C 1295.97 2870.12 1278.01 2867.13 1260.11 2863.84 C 1247.22 2861.47 1234.37 2858.96 1221.54 2856.31 C 1207.62 2853.44 1193.73 2850.42 1179.86 2847.26 C 1169.9 2844.99 1159.95 2842.65 1150.02 2840.25 C 1139.51 2837.71 1129.03 2835.1 1118.56 2832.42 C 1110.98 2830.48 1103.4 2828.51 1095.84 2826.5 C 1087.97 2824.41 1080.11 2822.29 1072.27 2820.14 C 1044.65 2812.56 1017.14 2804.6 989.74 2796.26 C 966.36 2789.15 943.04 2781.82 919.79 2774.27 Z " fill-rule="evenodd" fill="rgb(0,0,0)"/><path d=" M 850.97 626.5 C 850.97 578.207 893.986 539 946.97 539 C 999.954 539 1042.97 578.207 1042.97 626.5 C 1042.97 674.793 999.954 714 946.97 714 C 893.986 714 850.97 674.793 850.97 626.5 Z  M 865.97 626.5 C 865.98 616.92 868.08 607.47 872.12 598.78 C 874.13 594.47 876.57 590.36 879.42 586.54 C 882.32 582.63 885.59 579.02 889.19 575.74 C 896.73 568.9 905.48 563.53 914.99 559.89 C 925.19 555.97 936.04 553.98 946.97 554 C 957.9 553.98 968.75 555.97 978.95 559.89 C 988.46 563.53 997.21 568.9 1004.75 575.74 C 1008.35 579.02 1011.62 582.63 1014.52 586.54 C 1017.37 590.36 1019.81 594.47 1021.82 598.78 C 1025.86 607.47 1027.96 616.92 1027.97 626.5 C 1027.96 636.08 1025.86 645.53 1021.82 654.22 C 1019.81 658.53 1017.37 662.64 1014.52 666.46 C 1011.62 670.37 1008.35 673.98 1004.75 677.26 C 997.21 684.1 988.46 689.47 978.95 693.11 C 968.75 697.03 957.9 699.02 946.97 699 C 936.04 699.02 925.19 697.03 914.99 693.11 C 905.48 689.47 896.73 684.1 889.19 677.26 C 885.59 673.98 882.32 670.37 879.42 666.46 C 876.57 662.64 874.13 658.53 872.12 654.22 C 868.08 645.53 865.98 636.08 865.97 626.5 Z " fill-rule="evenodd" fill="rgb(0,0,0)"/><path d=" M 1994.559 626.5 C 1994.559 578.207 2037.575 539 2090.559 539 C 2143.543 539 2186.559 578.207 2186.559 626.5 C 2186.559 674.793 2143.543 714 2090.559 714 C 2037.575 714 1994.559 674.793 1994.559 626.5 Z  M 2009.56 626.5 C 2009.57 616.92 2011.67 607.47 2015.71 598.78 C 2017.72 594.47 2020.16 590.36 2023 586.54 C 2025.91 582.63 2029.18 579.02 2032.78 575.74 C 2040.32 568.9 2049.07 563.53 2058.57 559.89 C 2068.78 555.97 2079.63 553.98 2090.56 554 C 2101.49 553.98 2112.34 555.97 2122.54 559.89 C 2132.05 563.53 2140.8 568.9 2148.34 575.74 C 2151.94 579.02 2155.21 582.63 2158.11 586.54 C 2160.95 590.36 2163.4 594.47 2165.41 598.78 C 2169.45 607.47 2171.55 616.92 2171.56 626.5 C 2171.55 636.08 2169.45 645.53 2165.41 654.22 C 2163.4 658.53 2160.95 662.64 2158.11 666.46 C 2155.21 670.37 2151.94 673.98 2148.34 677.26 C 2140.8 684.1 2132.05 689.47 2122.54 693.11 C 2112.34 697.03 2101.49 699.02 2090.56 699 C 2079.63 699.02 2068.78 697.03 2058.57 693.11 C 2049.07 689.47 2040.32 684.1 2032.78 677.26 C 2029.18 673.98 2025.91 670.37 2023 666.46 C 2020.16 662.64 2017.72 658.53 2015.71 654.22 C 2011.67 645.53 2009.57 636.08 2009.56 626.5 Z " fill-rule="evenodd" fill="rgb(0,0,0)"/><path d=" M 1387.5 2666.578 C 1387.5 2618.285 1430.516 2579.078 1483.5 2579.078 C 1536.484 2579.078 1579.5 2618.285 1579.5 2666.578 C 1579.5 2714.87 1536.484 2754.078 1483.5 2754.078 C 1430.516 2754.078 1387.5 2714.87 1387.5 2666.578 Z  M 1402.5 2666.58 C 1402.51 2657 1404.61 2647.54 1408.65 2638.86 C 1410.66 2634.54 1413.1 2630.44 1415.95 2626.62 C 1418.85 2622.71 1422.12 2619.1 1425.72 2615.82 C 1433.26 2608.98 1442.01 2603.61 1451.52 2599.96 C 1461.72 2596.05 1472.57 2594.05 1483.5 2594.08 C 1494.43 2594.05 1505.28 2596.05 1515.48 2599.96 C 1524.99 2603.61 1533.74 2608.98 1541.28 2615.82 C 1544.88 2619.1 1548.15 2622.71 1551.05 2626.62 C 1553.9 2630.44 1556.34 2634.54 1558.35 2638.86 C 1562.39 2647.54 1564.49 2657 1564.5 2666.58 C 1564.49 2676.15 1562.39 2685.61 1558.35 2694.29 C 1556.34 2698.61 1553.9 2702.72 1551.05 2706.54 C 1548.15 2710.45 1544.88 2714.06 1541.28 2717.33 C 1533.74 2724.17 1524.99 2729.55 1515.48 2733.19 C 1505.28 2737.11 1494.43 2739.1 1483.5 2739.08 C 1472.57 2739.1 1461.72 2737.11 1451.52 2733.19 C 1442.01 2729.55 1433.26 2724.17 1425.72 2717.33 C 1422.12 2714.06 1418.85 2710.45 1415.95 2706.54 C 1413.1 2702.72 1410.66 2698.61 1408.65 2694.29 C 1404.61 2685.61 1402.51 2676.15 1402.5 2666.58 Z " fill-rule="evenodd" fill="rgb(0,0,0)"/></g></svg>