<?xml version="1.0" encoding="UTF-8" standalone="no"?><!-- Generator: Gravit.io --><svg xmlns="http://www.w3.org/2000/svg" xmlns:xlink="http://www.w3.org/1999/xlink" style="isolation:isolate" viewBox="0 0 3000 3000" width="3000pt" height="3000pt"><defs><clipPath id="_clipPath_E8c92I2tPsonjUcr5M8cjD2vjj71W3Wj"><rect width="3000" height="3000"/></clipPath></defs><g clip-path="url(#_clipPath_E8c92I2tPsonjUcr5M8cjD2vjj71W3Wj)"><path d=" M 2158.076 1850.049 C 2193.584 1916.387 2229.897 1984.791 2267.016 2055.26 C 2282.125 2083.944 2297.367 2112.971 2312.743 2142.34 C 2335.142 2185.122 2357.824 2228.631 2380.789 2272.865 C 2396.198 2302.546 2411.735 2332.555 2427.399 2362.89 C 2446.864 2400.585 2466.526 2438.786 2486.385 2477.492 C 2508.633 2520.852 2531.127 2564.847 2553.869 2609.475 C 2570.926 2642.946 2591.125 2680.911 2602.844 2713.168 C 2608.704 2729.297 2612.443 2743.999 2612.61 2756 C 2612.777 2768 2609.37 2777.299 2600.938 2782.621 C 2569.898 2783.92 2530.364 2777.906 2484.523 2766.115 C 2445.075 2755.968 2400.956 2741.543 2353.558 2723.818 C 2311.429 2708.064 2266.71 2689.702 2220.379 2669.422 C 2141.26 2634.789 2057.44 2594.56 1973.791 2552.158 C 1910.056 2519.85 1846.42 2486.281 1785.037 2452.966 C 1751.242 2434.623 1718.129 2416.356 1686.059 2398.42 C 1644.614 2375.24 1604.911 2352.61 1567.725 2331.076 C 1646.705 2275.788 1718.205 2224.343 1782.226 2176.74 C 1868.029 2112.942 1940.397 2056.047 1999.333 2006.056 C 2073.548 1943.105 2126.461 1891.102 2158.076 1850.049 Z  M 2145.52 1949 Q 1731.276 2288.276 1655 2328.076 C 1720 2370.333 2477.667 2762.667 2570 2739 C 2550.877 2679.922 2454.743 2505.89 2362.167 2326.73 C 2256.254 2121.76 2158.144 1941.475 2148.52 1949.28" fill-rule="evenodd" fill="rgb(255,255,255)"/><path d=" M 789.122 1699.867 Q 696.652 1583.052 682.933 1498.434 Q 646.77 1275.387 844.705 868.024 Q 528.201 889.765 193.146 912.78 C 149.097 915.806 135.075 889.762 161.854 854.656 Q 780.946 43.076 1130.1 264.771 C 1198.205 308.014 1288.979 409.387 1402.461 568.988 L 789.122 1699.867 Z  M 783.39 1613.95 C 775.63 1602.25 768.33 1590.23 761.52 1577.95 C 752.4 1561.5 744.5 1544.41 737.87 1526.82 C 733.51 1515.25 730.32 1503.27 728.34 1491.07 C 726.95 1482.48 725.86 1473.85 725.09 1465.18 C 724.23 1455.5 723.69 1445.79 723.47 1436.08 C 723.3 1428.73 723.3 1421.37 723.47 1414.01 C 723.65 1406.01 724 1398.01 724.52 1390.01 C 724.91 1384.09 725.38 1378.18 725.94 1372.27 C 726.53 1365.99 727.21 1359.71 727.98 1353.45 C 728.55 1348.83 729.16 1344.22 729.82 1339.61 C 730.5 1334.8 731.23 1329.99 732.01 1325.18 C 732.58 1321.63 733.18 1318.08 733.8 1314.53 C 734.44 1310.87 735.11 1307.21 735.8 1303.55 C 738.4 1289.77 741.31 1276.05 744.53 1262.4 C 748.15 1247.05 752.09 1231.77 756.33 1216.58 C 759.6 1204.89 763.03 1193.25 766.63 1181.66 C 770.54 1169.04 774.62 1156.48 778.87 1143.97 C 781.93 1134.93 785.09 1125.91 788.31 1116.92 C 791.74 1107.39 795.24 1097.89 798.82 1088.42 C 801.43 1081.54 804.07 1074.67 806.75 1067.82 C 809.55 1060.68 812.38 1053.56 815.26 1046.46 C 817.37 1041.24 819.5 1036.03 821.65 1030.83 C 823.87 1025.48 826.11 1020.13 828.36 1014.79 C 836.93 994.54 845.77 974.4 854.89 954.39 C 865.01 932.17 875.41 910.08 886.08 888.13 C 889.6 880.87 891.16 872.82 890.59 864.78 C 890.02 856.73 887.35 848.98 882.84 842.3 C 878.33 835.61 872.14 830.23 864.89 826.69 C 857.65 823.15 849.6 821.58 841.55 822.13 L 525.05 843.87 L 211.57 865.41 C 229.86 841.66 248.37 818.09 267.1 794.69 C 287.84 768.8 308.91 743.17 330.32 717.83 C 349.47 695.16 368.92 672.74 388.66 650.58 C 406.32 630.77 424.26 611.22 442.48 591.93 C 465.08 568.01 488.17 544.57 511.73 521.61 C 531.94 501.93 552.61 482.74 573.73 464.05 C 591.97 447.91 610.59 432.21 629.58 416.97 C 645.96 403.83 662.7 391.13 679.78 378.91 C 702.65 362.54 726.23 347.19 750.45 332.89 C 769.94 321.39 790.03 310.94 810.64 301.59 C 827.74 293.83 845.26 287 863.1 281.11 C 878 276.2 893.21 272.22 908.61 269.2 C 918.26 267.31 927.99 265.84 937.77 264.8 C 946.71 263.85 955.7 263.33 964.7 263.22 C 973.17 263.13 981.65 263.43 990.09 264.13 C 998.17 264.8 1006.2 265.87 1014.17 267.32 C 1022.02 268.75 1029.78 270.56 1037.45 272.75 C 1045.16 274.95 1052.76 277.53 1060.22 280.47 C 1067.89 283.49 1075.41 286.88 1082.74 290.63 C 1090.5 294.6 1098.07 298.92 1105.42 303.59 C 1109.15 305.97 1112.82 308.44 1116.42 311.01 C 1120.45 313.88 1124.42 316.85 1128.31 319.91 C 1132.61 323.28 1136.84 326.73 1141 330.27 C 1145.55 334.13 1150.02 338.07 1154.42 342.09 C 1164.34 351.14 1174 360.48 1183.38 370.09 C 1194.16 381.12 1204.69 392.39 1214.96 403.89 C 1226.54 416.85 1237.88 430.02 1248.99 443.39 C 1261.34 458.25 1273.46 473.3 1285.36 488.53 C 1298.47 505.29 1311.36 522.21 1324.04 539.29 C 1332.19 550.27 1340.28 561.3 1348.29 572.38 L 783.39 1613.95 Z " fill-rule="evenodd" fill="rgb(255,255,255)"/><path d=" M 602.342 2242.541 C 821.782 1821.139 1015.139 1466.28 1182.412 1177.964 C 1487.14 652.726 1689.021 366.421 1836.9 264.771 C 1984.78 163.12 2248.528 301.603 2628.125 680.2 C 2699.24 751.127 2774.42 830.481 2800.058 858.881 C 2829.645 891.655 2817.903 915.806 2773.854 912.78 Q 2694.387 907.322 2549.608 897.377 C 2506.608 894.423 2464.567 891.535 2423.486 888.713 C 2360.195 884.366 2299.181 880.174 2240.444 876.14 C 2199.98 873.36 2160.597 870.655 2122.295 868.024 Q 2186.303 1047.432 2225.057 1180.897 C 2268.177 1329.402 2287.847 1435.248 2284.067 1498.434 C 2280.287 1561.62 2169.579 1731.655 1989.155 1898.628 Q 1856.645 2021.26 1665.075 2168.039 C 1614.034 2204.471 1426.816 2319.142 1203.387 2439.615 C 1058.796 2517.579 899.039 2597.973 751.211 2661.166 C 579.073 2734.75 423.109 2785.009 366.062 2782.621 C 344.004 2781.697 334.193 2764.957 344.164 2745.26 Q 470.497 2495.73 602.342 2242.541 Z  M 401.97 2732.96 C 438.51 2660.92 475.23 2588.97 512.13 2517.11 L 643.14 2263.78 C 695.88 2162.48 749.04 2061.4 802.65 1960.56 L 952.34 1682.35 L 1092.2 1429.16 L 1158.43 1311.97 L 1222.2 1201.04 L 1277.99 1105.62 L 1331.41 1015.75 L 1382.53 931.37 L 1431.42 852.4 C 1446.85 827.77 1462.43 803.22 1478.15 778.77 C 1492.86 755.89 1507.74 733.1 1522.77 710.42 L 1565.34 647.26 C 1578.69 627.79 1592.21 608.45 1605.92 589.24 C 1618.61 571.45 1631.5 553.79 1644.57 536.28 C 1656.62 520.15 1668.87 504.16 1681.33 488.34 C 1692.74 473.83 1704.38 459.5 1716.23 445.35 C 1727.02 432.45 1738.04 419.75 1749.3 407.25 C 1759.47 395.94 1769.89 384.85 1780.54 373.99 C 1790.1 364.25 1799.9 354.75 1809.95 345.51 C 1818.88 337.31 1828.06 329.38 1837.48 321.75 C 1845.74 315.06 1854.25 308.69 1863 302.65 C 1868.76 298.69 1874.82 295.19 1881.12 292.19 C 1887.44 289.18 1893.99 286.68 1900.71 284.7 C 1907.77 282.63 1914.99 281.09 1922.28 280.1 C 1930.24 279.02 1938.26 278.48 1946.29 278.5 C 1954.56 278.51 1962.83 279 1971.05 279.94 C 1980.17 281 1989.23 282.5 1998.21 284.45 C 2008.15 286.6 2018 289.19 2027.72 292.19 C 2038.46 295.5 2049.07 299.21 2059.53 303.31 C 2071.02 307.81 2082.36 312.67 2093.54 317.9 C 2105.75 323.6 2117.8 329.63 2129.67 336 C 2142.56 342.91 2155.29 350.13 2167.83 357.65 C 2181.39 365.77 2194.77 374.18 2207.97 382.86 C 2222.17 392.19 2236.19 401.79 2250.03 411.64 C 2264.85 422.18 2279.5 432.96 2293.98 443.98 C 2309.41 455.73 2324.67 467.7 2339.77 479.89 C 2355.8 492.85 2371.67 506.01 2387.37 519.37 C 2404.01 533.52 2420.48 547.86 2436.78 562.39 L 2487.97 608.97 C 2505.78 625.51 2523.43 642.22 2540.93 659.1 L 2595.63 712.76 L 2648.47 766.18 C 2665.04 783.14 2681.53 800.19 2697.93 817.31 C 2711.64 831.62 2725.28 845.99 2738.84 860.44 C 2740.12 861.8 2741.4 863.17 2742.67 864.53 L 2697.54 861.43 L 2552.76 851.48 C 2552.1 851.44 2551.45 851.39 2550.79 851.35 C 2550.13 851.3 2549.48 851.26 2548.82 851.21 C 2548.16 851.17 2547.51 851.12 2546.85 851.08 C 2546.19 851.03 2545.53 850.99 2544.88 850.94 C 2544.22 850.9 2543.56 850.85 2542.91 850.81 C 2542.25 850.76 2541.59 850.72 2540.94 850.67 C 2540.28 850.63 2539.62 850.58 2538.97 850.54 C 2538.31 850.49 2537.65 850.45 2536.99 850.4 C 2536.34 850.36 2535.68 850.31 2535.02 850.27 C 2534.37 850.22 2533.71 850.18 2533.05 850.13 C 2532.4 850.09 2531.74 850.04 2531.08 850 C 2530.43 849.95 2529.77 849.91 2529.11 849.86 C 2528.46 849.82 2527.8 849.77 2527.14 849.72 C 2526.48 849.68 2525.83 849.63 2525.17 849.59 C 2524.51 849.54 2523.86 849.5 2523.2 849.45 C 2522.54 849.41 2521.89 849.36 2521.23 849.32 C 2520.57 849.27 2519.92 849.23 2519.26 849.18 C 2518.6 849.14 2517.95 849.09 2517.29 849.05 C 2516.63 849 2515.97 848.96 2515.32 848.91 C 2514.66 848.87 2514 848.82 2513.35 848.78 C 2512.69 848.73 2512.03 848.69 2511.38 848.64 C 2510.72 848.6 2510.06 848.55 2509.41 848.51 C 2508.75 848.46 2508.09 848.42 2507.44 848.37 C 2506.78 848.33 2506.12 848.28 2505.46 848.24 C 2504.81 848.19 2504.15 848.15 2503.49 848.1 C 2502.84 848.06 2502.18 848.01 2501.52 847.97 C 2500.87 847.92 2500.21 847.87 2499.55 847.83 C 2498.9 847.78 2498.24 847.74 2497.58 847.69 C 2496.92 847.65 2496.27 847.6 2495.61 847.56 C 2494.95 847.51 2494.3 847.47 2493.64 847.42 C 2492.98 847.38 2492.33 847.33 2491.67 847.29 C 2491.01 847.24 2490.36 847.2 2489.7 847.15 C 2489.04 847.11 2488.39 847.06 2487.73 847.02 C 2487.07 846.97 2486.41 846.93 2485.76 846.88 C 2485.1 846.84 2484.44 846.79 2483.79 846.75 C 2483.13 846.7 2482.47 846.66 2481.82 846.61 C 2481.16 846.57 2480.5 846.52 2479.85 846.48 C 2479.19 846.43 2478.53 846.39 2477.88 846.34 C 2477.22 846.3 2476.56 846.25 2475.9 846.21 C 2475.25 846.16 2474.59 846.12 2473.93 846.07 C 2473.28 846.02 2472.62 845.98 2471.96 845.93 C 2471.31 845.89 2470.65 845.84 2469.99 845.8 C 2469.34 845.75 2468.68 845.71 2468.02 845.66 C 2467.36 845.62 2466.71 845.57 2466.05 845.53 C 2465.39 845.48 2464.74 845.44 2464.08 845.39 C 2463.42 845.35 2462.77 845.3 2462.11 845.26 C 2461.45 845.21 2460.8 845.17 2460.14 845.12 C 2459.48 845.08 2458.83 845.03 2458.17 844.99 C 2457.51 844.94 2456.85 844.9 2456.2 844.85 C 2455.54 844.81 2454.88 844.76 2454.23 844.72 C 2453.57 844.67 2452.91 844.63 2452.26 844.58 C 2451.6 844.54 2450.94 844.49 2450.29 844.45 C 2449.63 844.4 2448.97 844.36 2448.32 844.31 C 2447.66 844.27 2447 844.22 2446.34 844.17 C 2445.69 844.13 2445.03 844.08 2444.37 844.04 C 2443.72 843.99 2443.06 843.95 2442.4 843.9 C 2441.75 843.86 2441.09 843.81 2440.43 843.77 C 2439.78 843.72 2439.12 843.68 2438.46 843.63 C 2437.81 843.59 2437.15 843.54 2436.49 843.5 C 2435.83 843.45 2435.18 843.41 2434.52 843.36 C 2433.86 843.32 2433.21 843.27 2432.55 843.23 C 2431.89 843.18 2431.24 843.14 2430.58 843.09 C 2429.92 843.05 2429.27 843 2428.61 842.96 C 2427.95 842.91 2427.29 842.87 2426.64 842.82 C 2425.68 842.76 2424.73 842.69 2423.78 842.62 C 2422.82 842.56 2421.87 842.49 2420.92 842.43 C 2419.96 842.36 2419.01 842.3 2418.06 842.23 C 2417.1 842.17 2416.15 842.1 2415.2 842.04 C 2414.24 841.97 2413.29 841.9 2412.34 841.84 C 2411.38 841.77 2410.43 841.71 2409.48 841.64 C 2408.52 841.58 2407.57 841.51 2406.62 841.45 C 2405.66 841.38 2404.71 841.32 2403.76 841.25 C 2402.8 841.18 2401.85 841.12 2400.9 841.05 C 2399.94 840.99 2398.99 840.92 2398.04 840.86 C 2397.08 840.79 2396.13 840.73 2395.18 840.66 C 2394.22 840.59 2393.27 840.53 2392.32 840.46 C 2391.36 840.4 2390.41 840.33 2389.46 840.27 C 2388.5 840.2 2387.55 840.14 2386.6 840.07 C 2385.64 840.01 2384.69 839.94 2383.74 839.87 C 2382.78 839.81 2381.83 839.74 2380.88 839.68 C 2379.92 839.61 2378.97 839.55 2378.02 839.48 C 2377.06 839.42 2376.11 839.35 2375.16 839.28 C 2374.2 839.22 2373.25 839.15 2372.3 839.09 C 2371.34 839.02 2370.39 838.96 2369.44 838.89 C 2368.48 838.83 2367.53 838.76 2366.58 838.7 C 2365.62 838.63 2364.67 838.56 2363.72 838.5 C 2362.76 838.43 2361.81 838.37 2360.86 838.3 C 2359.9 838.24 2358.95 838.17 2358 838.11 C 2357.04 838.04 2356.09 837.98 2355.14 837.91 C 2354.18 837.84 2353.23 837.78 2352.28 837.71 C 2351.32 837.65 2350.37 837.58 2349.42 837.52 C 2348.46 837.45 2347.51 837.39 2346.56 837.32 C 2345.6 837.25 2344.65 837.19 2343.7 837.12 C 2342.74 837.06 2341.79 836.99 2340.84 836.93 C 2339.88 836.86 2338.93 836.8 2337.98 836.73 C 2337.02 836.67 2336.07 836.6 2335.12 836.53 C 2334.16 836.47 2333.21 836.4 2332.26 836.34 C 2331.3 836.27 2330.35 836.21 2329.4 836.14 C 2328.44 836.08 2327.49 836.01 2326.54 835.95 C 2325.58 835.88 2324.63 835.81 2323.68 835.75 C 2322.72 835.68 2321.77 835.62 2320.82 835.55 C 2319.86 835.49 2318.91 835.42 2317.96 835.36 C 2317 835.29 2316.05 835.22 2315.1 835.16 C 2314.14 835.09 2313.19 835.03 2312.24 834.96 C 2311.28 834.9 2310.33 834.83 2309.38 834.77 C 2308.42 834.7 2307.47 834.64 2306.52 834.57 C 2305.56 834.5 2304.61 834.44 2303.66 834.37 C 2302.7 834.31 2301.75 834.24 2300.8 834.18 C 2299.84 834.11 2298.89 834.05 2297.94 833.98 C 2296.98 833.91 2296.03 833.85 2295.08 833.78 C 2294.12 833.72 2293.17 833.65 2292.22 833.59 C 2291.26 833.52 2290.31 833.46 2289.36 833.39 C 2288.4 833.33 2287.45 833.26 2286.5 833.19 C 2285.54 833.13 2284.59 833.06 2283.64 833 C 2282.68 832.93 2281.73 832.87 2280.78 832.8 C 2279.82 832.74 2278.87 832.67 2277.92 832.61 C 2276.96 832.54 2276.01 832.47 2275.06 832.41 C 2274.1 832.34 2273.15 832.28 2272.2 832.21 C 2271.24 832.15 2270.29 832.08 2269.34 832.02 C 2268.38 831.95 2267.43 831.88 2266.48 831.82 C 2265.52 831.75 2264.57 831.69 2263.62 831.62 C 2262.66 831.56 2261.71 831.49 2260.76 831.43 C 2259.8 831.36 2258.85 831.3 2257.9 831.23 C 2256.94 831.16 2255.99 831.1 2255.04 831.03 C 2254.08 830.97 2253.13 830.9 2252.18 830.84 C 2251.22 830.77 2250.27 830.71 2249.32 830.64 C 2248.36 830.58 2247.41 830.51 2246.46 830.44 C 2245.5 830.38 2244.55 830.31 2243.6 830.25 L 2243.6 830.25 L 2055.03 817.29 L 2112.68 979.9 C 2122.08 1007.34 2131.27 1034.85 2140.25 1062.43 C 2147.92 1085.96 2155.41 1109.54 2162.72 1133.17 C 2168.95 1153.31 2175.01 1173.49 2180.88 1193.73 C 2185.59 1209.92 2190.16 1226.15 2194.59 1242.42 C 2198.69 1257.45 2202.63 1272.51 2206.43 1287.62 C 2209.91 1301.47 2213.23 1315.35 2216.39 1329.28 C 2219.27 1341.94 2221.97 1354.63 2224.49 1367.37 C 2226.76 1378.81 2228.84 1390.3 2230.72 1401.82 C 2232.4 1412.02 2233.86 1422.27 2235.11 1432.53 C 2236.2 1441.46 2237.06 1450.42 2237.69 1459.39 C 2238.22 1466.97 2238.5 1474.56 2238.52 1482.15 C 2238.54 1486.65 2238.41 1491.15 2238.15 1495.65 C 2238.11 1496.36 2238.03 1497.06 2237.92 1497.77 C 2237.74 1498.96 2237.52 1500.15 2237.25 1501.33 C 2236.43 1504.93 2235.41 1508.48 2234.21 1511.97 C 2232.55 1516.82 2230.7 1521.6 2228.67 1526.31 C 2226.17 1532.12 2223.5 1537.85 2220.66 1543.49 C 2217.35 1550.09 2213.88 1556.62 2210.25 1563.05 C 2206.15 1570.34 2201.9 1577.54 2197.52 1584.65 C 2192.66 1592.53 2187.66 1600.32 2182.53 1608.02 C 2176.95 1616.41 2171.23 1624.71 2165.39 1632.92 C 2152.38 1651.17 2138.86 1669.05 2124.85 1686.54 C 2109.19 1706.11 2093.04 1725.27 2076.41 1744.02 C 2058.3 1764.44 2039.69 1784.41 2020.6 1803.91 C 2000.21 1824.74 1979.31 1845.07 1957.91 1864.87 C 1947.24 1874.75 1936.49 1884.55 1925.67 1894.27 C 1913.94 1904.81 1902.14 1915.27 1890.27 1925.65 C 1881.76 1933.09 1873.21 1940.5 1864.63 1947.87 C 1855.58 1955.64 1846.48 1963.38 1837.36 1971.08 C 1830.75 1976.66 1824.13 1982.21 1817.49 1987.74 C 1810.6 1993.49 1803.69 1999.22 1796.77 2004.92 C 1772.17 2025.19 1747.39 2045.22 1722.42 2065.02 L 1637.76 2131.02 C 1634.58 2133.27 1631.37 2135.49 1628.14 2137.68 C 1623.63 2140.74 1619.09 2143.76 1614.53 2146.75 C 1602.55 2154.6 1590.49 2162.33 1578.36 2169.95 C 1562.81 2179.72 1547.2 2189.38 1531.52 2198.94 C 1512.87 2210.32 1494.14 2221.6 1475.36 2232.78 L 1339.91 2311.47 L 1181.55 2399.13 L 1071.36 2457.4 L 958.15 2514.68 C 920.49 2533.29 882.61 2551.44 844.51 2569.14 C 807.63 2586.28 770.49 2602.86 733.11 2618.88 L 671.77 2644.38 L 612.83 2667.49 C 594.39 2674.49 575.86 2681.28 557.25 2687.84 C 540.27 2693.84 523.2 2699.6 506.04 2705.11 C 490.88 2709.99 475.62 2714.6 460.28 2718.93 C 453.48 2720.85 446.65 2722.69 439.81 2724.45 C 433.61 2726.04 427.38 2727.55 421.14 2728.98 C 415.61 2730.24 410.06 2731.41 404.49 2732.48 C 403.65 2732.64 402.81 2732.8 401.97 2732.96 Z " fill-rule="evenodd" fill="rgb(255,255,255)"/><path d=" M 892 2780.947 Q 1230.943 2436.611 1483 2433 Q 1735.057 2429.389 2075 2750 Q 1699.34 2894.976 1483 2900 Q 1266.66 2905.024 892 2780.947 Z  M 978.47 2760.37 C 987.17 2752.06 995.94 2743.83 1004.77 2735.65 C 1027.95 2714.2 1051.71 2693.37 1076.02 2673.21 C 1096.87 2655.91 1118.19 2639.19 1139.95 2623.05 C 1158.62 2609.21 1177.71 2595.95 1197.21 2583.31 C 1226.26 2564.47 1256.36 2547.3 1287.37 2531.88 C 1311.66 2519.8 1336.78 2509.45 1362.53 2500.91 C 1373.6 2497.24 1384.79 2493.96 1396.1 2491.08 C 1406.36 2488.47 1416.72 2486.25 1427.15 2484.43 C 1436.82 2482.75 1446.54 2481.44 1456.31 2480.5 C 1465.4 2479.63 1474.52 2479.13 1483.66 2479 C 1492.56 2478.87 1501.46 2479.08 1510.34 2479.62 C 1519.8 2480.21 1529.23 2481.13 1538.61 2482.39 C 1548.65 2483.74 1558.64 2485.45 1568.56 2487.52 C 1579.35 2489.77 1590.07 2492.38 1600.68 2495.35 C 1605.91 2496.81 1611.11 2498.36 1616.29 2499.98 C 1621.7 2501.68 1627.09 2503.45 1632.46 2505.31 C 1636.51 2506.72 1640.55 2508.17 1644.57 2509.66 C 1648.74 2511.2 1652.88 2512.79 1657.02 2514.43 C 1660.14 2515.66 1663.25 2516.92 1666.35 2518.2 C 1669.53 2519.51 1672.71 2520.85 1675.87 2522.22 C 1688.51 2527.66 1700.99 2533.46 1713.3 2539.62 C 1727 2546.46 1740.52 2553.66 1753.84 2561.2 C 1764.64 2567.31 1775.31 2573.62 1785.87 2580.13 C 1797.35 2587.22 1808.71 2594.51 1819.94 2602 C 1828.14 2607.46 1836.27 2613.02 1844.34 2618.68 C 1852.9 2624.69 1861.39 2630.8 1869.81 2637 C 1875.97 2641.53 1882.09 2646.1 1888.17 2650.73 C 1894.51 2655.56 1900.82 2660.43 1907.09 2665.35 C 1911.71 2668.98 1916.31 2672.62 1920.89 2676.3 C 1925.61 2680.08 1930.31 2683.9 1934.99 2687.73 C 1952.62 2702.18 1969.98 2716.94 1987.06 2732.03 C 1987.56 2732.46 1988.05 2732.9 1988.55 2733.33 C 1983.01 2735.36 1977.47 2737.37 1971.92 2739.37 C 1946.33 2748.59 1920.62 2757.49 1894.81 2766.07 C 1871.94 2773.66 1848.98 2780.97 1825.92 2787.99 C 1805.53 2794.2 1785.04 2800.12 1764.48 2805.75 C 1733.84 2814.13 1703.01 2821.75 1672 2828.6 C 1646.87 2834.15 1621.58 2838.94 1596.16 2842.96 C 1575.33 2846.25 1554.41 2848.91 1533.42 2850.94 C 1516.3 2852.59 1499.13 2853.61 1481.93 2854.01 C 1478.03 2854.1 1474.13 2854.16 1470.22 2854.18 C 1466.13 2854.21 1462.04 2854.2 1457.95 2854.15 C 1443.64 2854 1429.34 2853.46 1415.06 2852.55 C 1398.43 2851.49 1381.83 2850.04 1365.28 2848.21 C 1349.66 2846.49 1334.09 2844.46 1318.55 2842.15 C 1300.89 2839.51 1283.27 2836.58 1265.71 2833.35 C 1253.05 2831.02 1240.42 2828.56 1227.81 2825.95 C 1214.1 2823.12 1200.41 2820.15 1186.75 2817.03 C 1176.92 2814.8 1167.11 2812.49 1157.31 2810.12 C 1146.94 2807.61 1136.58 2805.03 1126.24 2802.38 C 1118.75 2800.47 1111.26 2798.52 1103.78 2796.54 C 1096 2794.47 1088.23 2792.37 1080.47 2790.25 C 1053.13 2782.74 1025.89 2774.86 998.77 2766.61 C 992 2764.55 985.23 2762.47 978.47 2760.37 Z " fill-rule="evenodd" fill="rgb(255,255,255)"/><path d=" M 850.97 626.5 C 850.97 578.207 893.986 539 946.97 539 C 999.954 539 1042.97 578.207 1042.97 626.5 C 1042.97 674.793 999.954 714 946.97 714 C 893.986 714 850.97 674.793 850.97 626.5 Z  M 896.97 626.5 C 896.98 621.44 898.09 616.45 900.22 611.86 C 901.35 609.45 902.71 607.16 904.3 605.02 C 906 602.73 907.92 600.61 910.03 598.69 C 914.72 594.44 920.17 591.1 926.08 588.83 C 932.75 586.28 939.83 584.98 946.97 585 C 954.11 584.98 961.19 586.28 967.86 588.83 C 973.77 591.1 979.22 594.44 983.91 598.69 C 986.02 600.61 987.94 602.73 989.64 605.02 C 991.23 607.16 992.59 609.45 993.72 611.87 C 995.85 616.45 996.96 621.44 996.97 626.5 C 996.96 631.56 995.85 636.55 993.72 641.13 C 992.59 643.55 991.23 645.84 989.64 647.98 C 987.94 650.27 986.02 652.39 983.91 654.31 C 979.22 658.56 973.77 661.9 967.86 664.17 C 961.19 666.72 954.11 668.02 946.97 668 C 939.83 668.02 932.75 666.72 926.08 664.17 C 920.17 661.9 914.72 658.56 910.03 654.31 C 907.92 652.39 906 650.27 904.3 647.98 C 902.71 645.84 901.35 643.55 900.22 641.13 C 898.09 636.55 896.98 631.56 896.97 626.5 Z " fill-rule="evenodd" fill="rgb(255,255,255)"/><path d=" M 1994.559 626.5 C 1994.559 578.207 2037.575 539 2090.559 539 C 2143.543 539 2186.559 578.207 2186.559 626.5 C 2186.559 674.793 2143.543 714 2090.559 714 C 2037.575 714 1994.559 674.793 1994.559 626.5 Z  M 2040.56 626.5 C 2040.57 621.44 2041.68 616.45 2043.81 611.86 C 2044.94 609.45 2046.3 607.16 2047.89 605.02 C 2049.59 602.73 2051.51 600.61 2053.62 598.69 C 2058.31 594.44 2063.76 591.1 2069.67 588.83 C 2076.34 586.28 2083.42 584.98 2090.56 585 C 2097.7 584.98 2104.78 586.28 2111.45 588.83 C 2117.36 591.1 2122.8 594.44 2127.5 598.69 C 2129.61 600.61 2131.53 602.73 2133.23 605.02 C 2134.82 607.16 2136.18 609.45 2137.31 611.87 C 2139.44 616.45 2140.55 621.44 2140.56 626.5 C 2140.55 631.56 2139.44 636.55 2137.31 641.13 C 2136.18 643.55 2134.82 645.84 2133.23 647.98 C 2131.53 650.27 2129.61 652.39 2127.5 654.31 C 2122.8 658.56 2117.36 661.9 2111.45 664.17 C 2104.78 666.72 2097.7 668.02 2090.56 668 C 2083.42 668.02 2076.34 666.72 2069.67 664.17 C 2063.76 661.9 2058.31 658.56 2053.62 654.31 C 2051.51 652.39 2049.59 650.27 2047.89 647.98 C 2046.3 645.84 2044.94 643.55 2043.81 641.13 C 2041.68 636.55 2040.57 631.56 2040.56 626.5 Z " fill-rule="evenodd" fill="rgb(255,255,255)"/><path d=" M 1387.5 2666.578 C 1387.5 2618.285 1430.516 2579.078 1483.5 2579.078 C 1536.484 2579.078 1579.5 2618.285 1579.5 2666.578 C 1579.5 2714.87 1536.484 2754.078 1483.5 2754.078 C 1430.516 2754.078 1387.5 2714.87 1387.5 2666.578 Z  M 1433.5 2666.58 C 1433.51 2661.52 1434.62 2656.53 1436.75 2651.94 C 1437.88 2649.53 1439.24 2647.24 1440.83 2645.1 C 1442.53 2642.81 1444.45 2640.69 1446.56 2638.77 C 1451.25 2634.52 1456.7 2631.17 1462.61 2628.91 C 1469.28 2626.35 1476.36 2625.05 1483.5 2625.08 C 1490.64 2625.05 1497.72 2626.35 1504.39 2628.91 C 1510.3 2631.17 1515.75 2634.52 1520.44 2638.77 C 1522.55 2640.69 1524.47 2642.81 1526.17 2645.1 C 1527.76 2647.24 1529.12 2649.53 1530.25 2651.94 C 1532.38 2656.53 1533.49 2661.52 1533.5 2666.58 C 1533.49 2671.63 1532.38 2676.63 1530.25 2681.21 C 1529.12 2683.62 1527.76 2685.92 1526.17 2688.05 C 1524.47 2690.34 1522.55 2692.47 1520.44 2694.39 C 1515.75 2698.64 1510.3 2701.98 1504.39 2704.24 C 1497.72 2706.8 1490.64 2708.1 1483.5 2708.08 C 1476.36 2708.1 1469.28 2706.8 1462.61 2704.24 C 1456.7 2701.98 1451.25 2698.64 1446.56 2694.39 C 1444.45 2692.47 1442.53 2690.34 1440.83 2688.05 C 1439.24 2685.92 1437.88 2683.62 1436.75 2681.21 C 1434.62 2676.63 1433.51 2671.63 1433.5 2666.58 Z " fill-rule="evenodd" fill="rgb(255,255,255)"/></g></svg>