<?xml version="1.0" encoding="UTF-8" standalone="no"?><!-- Generator: Gravit.io --><svg xmlns="http://www.w3.org/2000/svg" xmlns:xlink="http://www.w3.org/1999/xlink" style="isolation:isolate" viewBox="0 0 1000 1000" width="1000pt" height="1000pt"><defs><clipPath id="_clipPath_62KLuu6tD1XxnGcmElX1KSgSJxr2XChC"><rect width="1000" height="1000"/></clipPath></defs><g clip-path="url(#_clipPath_62KLuu6tD1XxnGcmElX1KSgSJxr2XChC)"><g><path d=" M 592.3 719.81 L 185.57 313.08 C 184.94 312.45 184.4 311.71 184 310.9 C 180.7 304.37 177.86 297.6 175.5 290.67 C 173.03 283.41 171.02 276.01 169.48 268.5 C 167.85 260.55 166.65 252.52 165.9 244.44 C 165.1 235.81 164.7 227.16 164.72 218.49 C 164.72 210.31 165.03 202.12 165.65 193.96 C 172.78 193.65 179.92 193.5 187.06 193.5 C 197.01 193.47 206.95 193.83 216.87 194.56 C 225.61 195.2 234.31 196.28 242.94 197.8 C 246.85 198.49 250.73 199.31 254.59 200.25 C 258.2 201.14 261.78 202.15 265.32 203.29 C 268.64 204.36 271.91 205.58 275.13 206.93 C 278.17 208.21 281.14 209.63 284.04 211.21 C 284.76 211.6 285.41 212.09 285.99 212.67 L 692.72 619.39 L 592.3 719.81 Z  M 592.3 695.77 L 198.57 302.04 C 195.88 296.58 193.55 290.96 191.59 285.2 C 189.35 278.61 187.53 271.89 186.13 265.08 C 184.62 257.74 183.52 250.32 182.83 242.86 C 182.07 234.77 181.7 226.64 181.72 218.52 C 181.72 215.85 181.75 213.19 181.82 210.53 C 183.58 210.51 185.33 210.5 187.09 210.5 C 196.61 210.48 206.13 210.82 215.62 211.52 C 223.78 212.11 231.91 213.12 239.97 214.54 C 243.53 215.17 247.06 215.92 250.56 216.77 C 253.77 217.55 256.95 218.45 260.09 219.47 C 262.95 220.39 265.77 221.44 268.55 222.6 C 270.69 223.51 272.8 224.5 274.87 225.58 L 668.67 619.39 L 592.3 695.77 Z " fill-rule="evenodd" fill="rgb(0,0,0)"/><path d=" M 549.39 823.26 L 507.48 781.35 L 754.26 534.57 L 796.17 576.48 L 549.39 823.26 Z  M 549.39 799.22 L 531.52 781.35 L 754.26 558.61 L 772.13 576.48 L 549.39 799.22 Z " fill-rule="evenodd" fill="rgb(0,0,0)"/><path d=" M 635.17 651.69 L 641.18 657.7 L 629.16 669.72 L 623.15 663.71 L 302.98 343.54 L 296.97 337.53 L 308.99 325.51 L 315 331.52 L 635.17 651.69 Z " fill="rgb(0,0,0)"/><g><path d=" M 702.94 644.92 L 832.79 774.77 C 834.66 776.63 835.55 779.26 835.21 781.87 C 834.47 787.63 833.37 793.34 831.94 798.97 C 830.62 804.15 828.92 809.22 826.85 814.15 C 824.92 818.75 822.57 823.18 819.85 827.36 C 817.24 831.37 814.22 835.09 810.85 838.48 C 807.53 841.8 803.86 844.75 799.9 847.28 C 795.9 849.83 791.64 851.95 787.2 853.6 C 782.58 855.32 777.81 856.6 772.96 857.42 C 767.79 858.3 762.56 858.78 757.32 858.84 C 755.04 858.86 752.83 857.97 751.21 856.35 L 621.36 726.5 L 702.94 644.92 Z  M 702.94 668.96 L 817.76 783.77 C 817.16 787.47 816.39 791.15 815.47 794.78 C 814.36 799.14 812.92 803.41 811.18 807.56 C 809.64 811.23 807.77 814.75 805.61 818.08 C 803.63 821.1 801.36 823.91 798.81 826.47 C 796.37 828.91 793.67 831.08 790.76 832.95 C 787.77 834.85 784.59 836.43 781.27 837.67 C 777.65 839.01 773.91 840.02 770.1 840.66 C 766.97 841.2 763.8 841.55 760.63 841.72 L 645.41 726.5 L 702.94 668.96 Z " fill-rule="evenodd" fill="rgb(0,0,0)"/><path d=" M 682.75 781.09 L 718.15 679.47 C 718.89 677.34 720.45 675.59 722.48 674.61 C 724.51 673.63 726.85 673.49 728.97 674.23 C 731.1 674.98 732.85 676.53 733.83 678.56 C 734.81 680.59 734.95 682.93 734.21 685.06 L 698.8 786.68 C 698.06 788.81 696.5 790.56 694.47 791.54 C 692.44 792.52 690.11 792.66 687.98 791.91 C 685.85 791.17 684.1 789.62 683.12 787.59 C 682.14 785.56 682.01 783.22 682.75 781.09 Z " fill="rgb(0,0,0)"/><path d=" M 716.98 815.32 L 752.38 713.7 C 753.12 711.57 754.68 709.82 756.71 708.84 C 758.74 707.86 761.08 707.73 763.21 708.47 C 765.33 709.21 767.08 710.77 768.06 712.79 C 769.04 714.82 769.18 717.16 768.44 719.29 L 733.03 820.92 C 732.29 823.04 730.73 824.79 728.7 825.77 C 726.68 826.75 724.34 826.89 722.21 826.15 C 720.08 825.4 718.33 823.85 717.35 821.82 C 716.37 819.79 716.24 817.45 716.98 815.32 Z " fill="rgb(0,0,0)"/><path d=" M 674.2 676.52 C 674.94 674.39 676.49 672.63 678.52 671.65 C 680.55 670.66 682.88 670.52 685.01 671.26 C 687.14 672 688.89 673.55 689.88 675.58 C 690.86 677.6 691 679.94 690.27 682.07 L 665.58 753.44 C 664.85 755.57 663.29 757.32 661.26 758.31 C 659.24 759.29 656.9 759.43 654.77 758.7 C 652.64 757.96 650.89 756.41 649.9 754.38 C 648.92 752.35 648.78 750.01 649.52 747.88 L 674.2 676.52 Z " fill="rgb(0,0,0)"/><path d=" M 747.29 845.67 L 782.17 744.34 C 782.91 742.21 784.46 740.45 786.48 739.46 C 788.51 738.48 790.84 738.33 792.98 739.07 C 795.11 739.8 796.86 741.35 797.85 743.38 C 798.84 745.4 798.98 747.74 798.25 749.87 L 763.36 851.2 C 762.63 853.34 761.08 855.09 759.05 856.08 C 757.03 857.07 754.69 857.21 752.56 856.47 C 750.43 855.74 748.67 854.19 747.68 852.16 C 746.7 850.14 746.55 847.8 747.29 845.67 Z " fill="rgb(0,0,0)"/></g></g><g><path d=" M 475.36 628.11 L 481.37 622.1 L 493.39 634.12 L 487.38 640.13 L 407.7 719.81 L 307.28 619.39 L 387.98 538.69 L 393.99 532.68 L 406.02 544.7 L 400.01 550.71 L 331.33 619.39 L 407.7 695.77 L 475.36 628.11 Z " fill="rgb(0,0,0)"/><path d=" M 527.69 423.02 L 521.68 429.03 L 509.66 417.01 L 515.67 411 L 714.01 212.67 C 714.59 212.09 715.24 211.6 715.96 211.21 C 718.86 209.63 721.83 208.21 724.87 206.93 C 728.09 205.58 731.36 204.36 734.68 203.29 C 738.22 202.15 741.8 201.14 745.41 200.25 C 749.27 199.31 753.15 198.49 757.06 197.8 C 765.69 196.28 774.39 195.2 783.13 194.56 C 793.05 193.83 802.99 193.47 812.94 193.5 C 820.08 193.5 827.22 193.65 834.35 193.96 C 834.97 202.12 835.28 210.31 835.28 218.49 C 835.3 227.16 834.9 235.81 834.1 244.44 C 833.35 252.52 832.15 260.55 830.52 268.5 C 828.98 276.01 826.97 283.41 824.5 290.67 C 822.14 297.6 819.3 304.37 816 310.9 C 815.6 311.71 815.06 312.45 814.43 313.08 L 618.65 508.86 L 612.64 514.87 L 600.62 502.85 L 606.63 496.84 L 801.43 302.04 C 804.12 296.58 806.45 290.96 808.41 285.2 C 810.65 278.61 812.47 271.89 813.87 265.08 C 815.38 257.74 816.48 250.32 817.17 242.86 C 817.93 234.77 818.3 226.64 818.28 218.52 C 818.28 215.85 818.25 213.19 818.18 210.53 C 816.42 210.51 814.67 210.5 812.91 210.5 C 803.39 210.48 793.87 210.82 784.38 211.52 C 776.22 212.11 768.09 213.12 760.03 214.54 C 756.47 215.17 752.94 215.92 749.44 216.77 C 746.23 217.55 743.05 218.45 739.91 219.47 C 737.05 220.39 734.23 221.44 731.45 222.6 C 729.31 223.51 727.2 224.5 725.13 225.58 L 527.69 423.02 Z " fill="rgb(0,0,0)"/><path d=" M 203.83 576.48 L 245.74 534.57 L 492.52 781.35 L 450.61 823.26 L 203.83 576.48 Z  M 227.87 576.48 L 245.74 558.61 L 468.48 781.35 L 450.61 799.22 L 227.87 576.48 Z " fill-rule="evenodd" fill="rgb(0,0,0)"/><path d=" M 376.85 663.71 L 370.84 669.72 L 358.82 657.7 L 364.83 651.69 L 432.39 584.13 L 438.4 578.12 L 450.42 590.14 L 444.41 596.15 L 376.85 663.71 Z " fill="rgb(0,0,0)"/><path d=" M 573.92 466.64 L 567.91 472.65 L 555.89 460.63 L 561.9 454.62 L 685 331.52 L 691.01 325.51 L 703.03 337.53 L 697.02 343.54 L 573.92 466.64 Z " fill="rgb(0,0,0)"/><g><path d=" M 378.64 726.5 L 248.79 856.35 C 247.17 857.97 244.96 858.86 242.68 858.84 C 237.44 858.78 232.21 858.3 227.04 857.42 C 222.19 856.6 217.42 855.32 212.8 853.6 C 208.36 851.95 204.1 849.83 200.1 847.28 C 196.14 844.75 192.47 841.8 189.15 838.48 C 185.78 835.09 182.76 831.37 180.15 827.36 C 177.43 823.18 175.08 818.75 173.15 814.15 C 171.08 809.22 169.38 804.15 168.06 798.97 C 166.63 793.34 165.53 787.63 164.79 781.87 C 164.45 779.26 165.34 776.63 167.21 774.77 L 297.06 644.92 L 378.64 726.5 Z  M 354.59 726.5 L 239.37 841.72 C 236.2 841.55 233.03 841.2 229.9 840.66 C 226.09 840.02 222.35 839.01 218.73 837.67 C 215.41 836.43 212.23 834.85 209.24 832.95 C 206.33 831.08 203.63 828.91 201.19 826.47 C 198.64 823.91 196.37 821.1 194.39 818.08 C 192.23 814.75 190.36 811.23 188.82 807.56 C 187.08 803.41 185.64 799.14 184.53 794.78 C 183.61 791.15 182.84 787.47 182.24 783.77 L 297.06 668.96 L 354.59 726.5 Z " fill-rule="evenodd" fill="rgb(0,0,0)"/><path d=" M 265.79 685.06 C 265.05 682.93 265.19 680.59 266.17 678.56 C 267.15 676.53 268.9 674.98 271.03 674.23 C 273.15 673.49 275.49 673.63 277.52 674.61 C 279.55 675.59 281.11 677.34 281.85 679.47 L 317.25 781.09 C 317.99 783.22 317.86 785.56 316.88 787.59 C 315.9 789.62 314.15 791.17 312.02 791.91 C 309.89 792.66 307.56 792.52 305.53 791.54 C 303.5 790.56 301.94 788.81 301.2 786.68 L 265.79 685.06 Z " fill="rgb(0,0,0)"/><path d=" M 231.56 719.29 C 230.82 717.16 230.96 714.82 231.94 712.79 C 232.92 710.77 234.67 709.21 236.79 708.47 C 238.92 707.73 241.26 707.86 243.29 708.84 C 245.32 709.82 246.88 711.57 247.62 713.7 L 283.02 815.32 C 283.76 817.45 283.63 819.79 282.65 821.82 C 281.67 823.85 279.92 825.4 277.79 826.15 C 275.66 826.89 273.32 826.75 271.3 825.77 C 269.27 824.79 267.71 823.04 266.97 820.92 L 231.56 719.29 Z " fill="rgb(0,0,0)"/><path d=" M 334.42 753.44 L 309.73 682.07 C 309 679.94 309.14 677.6 310.12 675.58 C 311.11 673.55 312.86 672 314.99 671.26 C 317.12 670.52 319.45 670.66 321.48 671.65 C 323.51 672.63 325.06 674.39 325.8 676.52 L 350.48 747.88 C 351.22 750.01 351.08 752.35 350.1 754.38 C 349.11 756.41 347.36 757.96 345.23 758.7 C 343.1 759.43 340.76 759.29 338.74 758.31 C 336.71 757.32 335.15 755.57 334.42 753.44 Z " fill="rgb(0,0,0)"/><path d=" M 236.64 851.2 L 201.75 749.87 C 201.02 747.74 201.16 745.4 202.15 743.38 C 203.14 741.35 204.89 739.8 207.02 739.07 C 209.16 738.33 211.49 738.48 213.52 739.46 C 215.54 740.45 217.09 742.21 217.83 744.34 L 252.71 845.67 C 253.45 847.8 253.3 850.14 252.32 852.16 C 251.33 854.19 249.57 855.74 247.44 856.47 C 245.31 857.21 242.97 857.07 240.95 856.08 C 238.92 855.09 237.37 853.34 236.64 851.2 Z " fill="rgb(0,0,0)"/></g></g></g></svg>