<?xml version="1.0" encoding="UTF-8" standalone="no"?><!-- Generator: Gravit.io --><svg xmlns="http://www.w3.org/2000/svg" xmlns:xlink="http://www.w3.org/1999/xlink" style="isolation:isolate" viewBox="0 0 1000 1000" width="1000pt" height="1000pt"><defs><clipPath id="_clipPath_S9mU2pxk8oY68KlxwhNkYjNn6s1Wayi4"><rect width="1000" height="1000"/></clipPath></defs><g clip-path="url(#_clipPath_S9mU2pxk8oY68KlxwhNkYjNn6s1Wayi4)"><path d=" M 733.58 149.33 L 734.25 140.85 L 751.2 142.2 L 750.52 150.67 C 749.42 164.49 748.03 178.27 746.35 192.02 C 744.78 204.98 742.89 217.9 740.7 230.77 C 738.64 242.89 736.25 254.95 733.55 266.93 C 731 278.21 728.11 289.4 724.89 300.5 C 721.85 310.95 718.46 321.28 714.71 331.49 C 711.18 341.11 707.27 350.58 702.99 359.9 C 698.95 368.69 694.52 377.31 689.72 385.71 C 685.15 393.69 680.2 401.44 674.86 408.93 C 669.76 416.09 664.27 422.97 658.42 429.53 C 652.77 435.86 646.74 441.85 640.38 447.46 C 627.99 458.4 614.27 467.72 599.54 475.2 C 592.18 478.93 584.59 482.18 576.81 484.94 C 568.9 487.74 560.82 490.06 552.62 491.89 C 544.17 493.77 535.62 495.16 527.01 496.07 C 518.04 497.01 509.03 497.49 500.01 497.5 C 489.77 497.52 479.54 496.95 469.36 495.79 C 460.09 494.72 450.89 493.07 441.83 490.82 C 433.34 488.72 424.99 486.07 416.84 482.89 C 408.94 479.82 401.26 476.21 393.84 472.11 C 386.43 468.01 379.29 463.41 372.49 458.36 C 365.46 453.14 358.78 447.47 352.48 441.39 C 345.76 434.9 339.46 427.99 333.63 420.69 C 327.23 412.68 321.3 404.3 315.87 395.6 C 311.44 388.5 307.31 381.22 303.5 373.78 C 299.28 365.53 295.38 357.12 291.8 348.57 C 289.12 342.17 286.6 335.7 284.26 329.16 C 281.71 322.06 279.33 314.89 277.12 307.67 C 275.49 302.38 273.96 297.06 272.51 291.72 C 270.97 286.03 269.51 280.32 268.14 274.58 C 267.14 270.4 266.18 266.21 265.27 262 C 264.32 257.6 263.41 253.19 262.54 248.78 C 261.9 245.54 261.29 242.29 260.7 239.04 C 260.09 235.69 259.51 232.33 258.94 228.96 C 256.9 216.75 255.13 204.5 253.64 192.21 C 251.97 178.39 250.58 164.55 249.47 150.68 L 248.8 142.2 L 265.74 140.85 L 266.42 149.32 C 267.51 162.96 268.88 176.58 270.52 190.17 C 271.97 202.2 273.7 214.2 275.71 226.15 C 276.26 229.44 276.83 232.72 277.43 236.01 C 278 239.18 278.6 242.34 279.22 245.5 C 280.07 249.81 280.95 254.11 281.89 258.4 C 282.77 262.49 283.7 266.56 284.67 270.63 C 286 276.2 287.42 281.74 288.92 287.26 C 290.32 292.43 291.8 297.57 293.37 302.69 C 295.5 309.65 297.8 316.56 300.26 323.42 C 302.51 329.67 304.91 335.87 307.48 342.01 C 310.89 350.16 314.62 358.17 318.64 366.04 C 322.23 373.05 326.11 379.91 330.29 386.6 C 335.37 394.74 340.92 402.58 346.91 410.07 C 352.29 416.8 358.09 423.18 364.29 429.16 C 370.06 434.73 376.19 439.93 382.63 444.71 C 388.82 449.31 395.32 453.5 402.07 457.23 C 408.83 460.97 415.82 464.25 423.01 467.05 C 430.48 469.97 438.13 472.39 445.92 474.32 C 454.27 476.39 462.75 477.92 471.3 478.9 C 480.82 479.99 490.4 480.52 499.99 480.5 C 508.42 480.49 516.85 480.04 525.23 479.16 C 533.2 478.32 541.11 477.03 548.94 475.29 C 556.46 473.62 563.87 471.49 571.13 468.92 C 578.22 466.4 585.14 463.43 591.85 460.04 C 605.3 453.21 617.82 444.7 629.13 434.72 C 634.99 429.55 640.53 424.04 645.74 418.21 C 651.18 412.11 656.28 405.72 661.02 399.07 C 666.02 392.04 670.67 384.77 674.96 377.28 C 679.51 369.31 683.71 361.14 687.54 352.8 C 691.63 343.89 695.37 334.83 698.75 325.63 C 702.37 315.79 705.64 305.83 708.56 295.76 C 711.69 284.99 714.5 274.13 716.96 263.19 C 719.6 251.5 721.93 239.74 723.94 227.92 C 726.09 215.32 727.93 202.66 729.48 189.97 C 731.13 176.45 732.49 162.9 733.58 149.33 Z " fill="rgb(0,0,0)"/><g><path d=" M 262.46 49.94 L 262.52 58.44 L 245.52 58.56 L 245.46 50.06 C 245.45 47.97 245.44 45.88 245.44 43.79 C 245.44 43.79 245.44 43.79 245.44 43.78 L 245.45 39.94 C 245.45 39.93 245.45 39.93 245.45 39.92 C 245.47 32.65 248.38 25.67 253.53 20.53 C 258.69 15.39 265.68 12.5 272.95 12.5 L 727.05 12.5 C 734.32 12.5 741.31 15.39 746.47 20.53 C 751.62 25.67 754.53 32.65 754.55 39.92 C 754.56 41.63 754.56 43.33 754.55 45.03 C 754.55 46.71 754.54 48.38 754.53 50.05 L 754.48 58.55 L 737.48 58.45 L 737.53 49.95 C 737.55 48.3 737.55 46.65 737.55 45 C 737.56 43.33 737.56 41.65 737.55 39.97 C 737.54 37.19 736.43 34.53 734.46 32.57 C 732.5 30.6 729.83 29.5 727.05 29.5 C 727.05 29.5 727.05 29.5 727.05 29.5 L 272.95 29.5 C 270.17 29.5 267.51 30.6 265.54 32.56 C 263.57 34.53 262.46 37.19 262.45 39.97 L 262.44 43.8 C 262.44 45.85 262.45 47.9 262.46 49.94 Z " fill="rgb(0,0,0)"/></g><path d=" M 469.83 617.59 L 470.24 626.08 L 453.26 626.9 L 452.85 618.41 C 451.77 596.18 450 573.98 447.57 551.86 C 444.63 525.21 440.77 498.67 435.99 472.3 C 447.45 474.82 459.07 476.53 470.77 477.39 C 479.22 478.03 487.69 478.34 496.16 478.33 C 505.3 478.32 514.44 478.01 523.55 477.39 C 537.25 476.47 550.9 474.96 564.47 472.86 C 558.43 499.2 553.48 525.78 549.63 552.53 C 546.48 574.45 544.16 596.48 542.66 618.58 L 542.08 627.06 L 525.12 625.9 L 525.69 617.42 C 527.22 594.91 529.6 572.45 532.81 550.11 C 535.56 530.92 538.88 511.81 542.76 492.81 C 536.75 493.43 530.73 493.95 524.7 494.35 C 515.21 494.99 505.7 495.32 496.18 495.33 C 487.28 495.34 478.38 495.01 469.5 494.35 C 465.25 494.03 461.01 493.61 456.78 493.09 C 459.81 511.99 462.37 530.97 464.46 549.99 C 466.94 572.46 468.73 595.01 469.83 617.59 Z " fill="rgb(0,0,0)"/><path d=" M 524.14 696.24 L 523.9 687.74 L 540.9 687.26 L 541.14 695.76 C 541.86 721.2 543.96 746.59 547.43 771.81 C 551.11 798.5 556.52 824.93 563.61 850.92 C 556.55 854.11 549.29 856.85 541.88 859.13 C 537.05 860.61 532.16 861.86 527.22 862.89 C 517.72 864.89 508.04 865.9 498.33 865.93 C 488.85 865.93 479.4 864.91 470.14 862.87 C 458.59 860.3 447.42 856.23 436.91 850.77 C 442.12 824.51 446.11 798.01 448.9 771.38 C 451.53 746.26 453.16 721.04 453.79 695.79 L 454.01 687.29 L 471 687.72 L 470.79 696.21 C 470.14 721.91 468.48 747.58 465.81 773.15 C 463.44 795.83 460.2 818.42 456.11 840.85 C 461.86 843.12 467.78 844.93 473.82 846.27 C 481.86 848.04 490.07 848.93 498.3 848.93 C 506.85 848.91 515.38 848.01 523.74 846.25 C 528.18 845.33 532.56 844.2 536.89 842.87 C 539.07 842.21 541.24 841.49 543.39 840.73 C 537.95 818.77 533.68 796.54 530.59 774.13 C 527.03 748.3 524.88 722.3 524.14 696.24 Z " fill="rgb(0,0,0)"/><path d=" M 782.42 46.91 C 785.36 54.43 787.54 62.23 788.93 70.19 C 790.39 78.56 791.1 87.05 791.07 95.55 C 791.04 104.71 790.34 113.86 788.96 122.92 C 787.46 132.82 785.37 142.62 782.69 152.27 C 782.19 154.06 781.12 155.64 779.65 156.77 C 778.17 157.89 776.36 158.5 774.5 158.5 L 225.5 158.5 C 223.81 158.5 222.15 157.99 220.75 157.05 C 219.34 156.1 218.25 154.75 217.62 153.18 C 214.29 144.93 211.74 136.39 210.03 127.66 C 208.34 118.99 207.49 110.18 207.49 101.35 C 207.51 92.33 208.35 83.32 210.01 74.45 C 211.76 65.14 214.27 55.99 217.51 47.09 C 218.11 45.45 219.2 44.04 220.62 43.04 C 222.05 42.04 223.76 41.5 225.5 41.5 L 774.5 41.5 C 776.21 41.5 777.88 42.02 779.29 42.98 C 780.71 43.95 781.8 45.31 782.42 46.91 Z  M 768.53 58.5 C 770.09 63.28 771.32 68.16 772.18 73.11 C 773.47 80.5 774.1 87.99 774.07 95.49 C 774.05 103.82 773.4 112.13 772.15 120.37 C 771.08 127.47 769.67 134.52 767.94 141.5 L 231.37 141.5 C 229.41 135.92 227.85 130.2 226.71 124.39 C 225.23 116.81 224.49 109.1 224.49 101.37 C 224.51 93.39 225.25 85.43 226.72 77.59 C 227.94 71.13 229.56 64.75 231.57 58.5 L 768.53 58.5 Z " fill-rule="evenodd" fill="rgb(0,0,0)"/><path d=" M 265.5 100 C 265.5 89 269.88 78.43 277.66 70.66 C 285.43 62.88 296 58.5 307 58.5 C 318 58.5 328.57 62.88 336.34 70.66 C 344.12 78.43 348.5 89 348.5 100 C 348.5 111 344.12 121.57 336.34 129.34 C 328.57 137.12 318 141.5 307 141.5 C 296 141.5 285.43 137.12 277.66 129.34 C 269.88 121.57 265.5 111 265.5 100 Z  M 282.5 100 C 282.5 93.5 285.08 87.27 289.68 82.68 C 294.27 78.08 300.5 75.5 307 75.5 C 313.5 75.5 319.73 78.08 324.32 82.68 C 328.92 87.27 331.5 93.5 331.5 100 C 331.5 106.5 328.92 112.73 324.32 117.32 C 319.73 121.92 313.5 124.5 307 124.5 C 300.5 124.5 294.27 121.92 289.68 117.32 C 285.08 112.73 282.5 106.5 282.5 100 Z " fill-rule="evenodd" fill="rgb(0,0,0)"/><path d=" M 393.5 100 C 393.5 89 397.88 78.43 405.66 70.66 C 413.43 62.88 424 58.5 435 58.5 C 446 58.5 456.57 62.88 464.34 70.66 C 472.12 78.43 476.5 89 476.5 100 C 476.5 111 472.12 121.57 464.34 129.34 C 456.57 137.12 446 141.5 435 141.5 C 424 141.5 413.43 137.12 405.66 129.34 C 397.88 121.57 393.5 111 393.5 100 Z  M 410.5 100 C 410.5 93.5 413.08 87.27 417.68 82.68 C 422.27 78.08 428.5 75.5 435 75.5 C 441.5 75.5 447.73 78.08 452.32 82.68 C 456.92 87.27 459.5 93.5 459.5 100 C 459.5 106.5 456.92 112.73 452.32 117.32 C 447.73 121.92 441.5 124.5 435 124.5 C 428.5 124.5 422.27 121.92 417.68 117.32 C 413.08 112.73 410.5 106.5 410.5 100 Z " fill-rule="evenodd" fill="rgb(0,0,0)"/><path d=" M 519.5 100 C 519.5 89 523.88 78.43 531.66 70.66 C 539.43 62.88 550 58.5 561 58.5 C 572 58.5 582.57 62.88 590.34 70.66 C 598.12 78.43 602.5 89 602.5 100 C 602.5 111 598.12 121.57 590.34 129.34 C 582.57 137.12 572 141.5 561 141.5 C 550 141.5 539.43 137.12 531.66 129.34 C 523.88 121.57 519.5 111 519.5 100 Z  M 536.5 100 C 536.5 93.5 539.08 87.27 543.68 82.68 C 548.27 78.08 554.5 75.5 561 75.5 C 567.5 75.5 573.73 78.08 578.32 82.68 C 582.92 87.27 585.5 93.5 585.5 100 C 585.5 106.5 582.92 112.73 578.32 117.32 C 573.73 121.92 567.5 124.5 561 124.5 C 554.5 124.5 548.27 121.92 543.68 117.32 C 539.08 112.73 536.5 106.5 536.5 100 Z " fill-rule="evenodd" fill="rgb(0,0,0)"/><path d=" M 645.5 100 C 645.5 89 649.88 78.43 657.66 70.66 C 665.43 62.88 676 58.5 687 58.5 C 698 58.5 708.57 62.88 716.34 70.66 C 724.12 78.43 728.5 89 728.5 100 C 728.5 111 724.12 121.57 716.34 129.34 C 708.57 137.12 698 141.5 687 141.5 C 676 141.5 665.43 137.12 657.66 129.34 C 649.88 121.57 645.5 111 645.5 100 Z  M 662.5 100 C 662.5 93.5 665.08 87.27 669.68 82.68 C 674.27 78.08 680.5 75.5 687 75.5 C 693.5 75.5 699.73 78.08 704.32 82.68 C 708.92 87.27 711.5 93.5 711.5 100 C 711.5 106.5 708.92 112.73 704.32 117.32 C 699.73 121.92 693.5 124.5 687 124.5 C 680.5 124.5 674.27 121.92 669.68 117.32 C 665.08 112.73 662.5 106.5 662.5 100 Z " fill-rule="evenodd" fill="rgb(0,0,0)"/><path d=" M 706.25 905.88 L 665.32 858.58 L 545.91 828.24 L 537.67 826.14 L 541.86 809.67 L 550.09 811.76 L 674.68 843.42 L 722.63 898.84 C 723.79 900.15 724.74 901.62 725.46 903.21 C 726.26 904.96 726.69 906.86 726.71 908.79 C 726.73 910.59 726.35 912.37 725.62 914.01 C 724.9 915.61 723.85 917.05 722.55 918.22 C 721.36 919.29 720 920.16 718.53 920.79 C 717.16 921.37 715.72 921.78 714.26 922.01 C 678.32 927.91 642.15 932.32 605.85 935.24 C 569.56 938.18 533.16 939.65 496.75 939.65 C 460.78 939.67 424.83 938.2 388.98 935.26 C 353.89 932.39 318.95 927.99 284.24 922.07 C 282.73 921.82 281.25 921.38 279.85 920.76 C 278.35 920.09 276.98 919.17 275.79 918.05 C 273.19 915.6 271.72 912.17 271.72 908.6 C 271.74 906.75 272.11 904.91 272.83 903.2 C 273.49 901.63 274.37 900.16 275.44 898.85 L 319.93 843.46 L 444.4 811.76 L 452.64 809.67 L 456.83 826.14 L 448.6 828.24 L 329.63 858.54 L 291.46 906.05 C 324.25 911.52 357.24 915.61 390.37 918.31 C 425.75 921.22 461.24 922.67 496.75 922.65 C 532.7 922.65 568.64 921.2 604.48 918.3 L 706.25 905.88 Z " fill="rgb(0,0,0)"/><path d=" M 444.72 609.5 L 551.72 609.5 C 554.55 609.5 557.2 610.91 558.78 613.27 C 560.92 616.47 562.86 619.81 564.56 623.27 C 566.21 626.63 567.61 630.1 568.75 633.66 C 570.99 640.67 572.13 647.98 572.13 655.34 C 572.13 659.06 571.84 662.78 571.29 666.46 C 570.72 670.25 569.89 673.99 568.8 677.66 C 567.68 681.49 566.32 685.24 564.73 688.9 C 563.06 692.76 561.19 696.53 559.12 700.18 C 557.61 702.85 554.78 704.5 551.72 704.5 L 444.72 704.5 C 441.71 704.5 438.91 702.9 437.39 700.3 C 433.66 693.96 430.77 687.17 428.78 680.09 C 426.85 673.13 425.87 665.94 425.88 658.72 C 425.91 651.29 426.87 643.89 428.73 636.69 C 429.7 632.91 430.87 629.18 432.23 625.53 C 433.67 621.7 435.29 617.94 437.08 614.27 C 438.5 611.36 441.47 609.5 444.72 609.5 Z  M 450.16 626.5 L 547.01 626.5 C 547.82 627.9 548.59 629.32 549.3 630.77 C 550.58 633.38 551.67 636.08 552.56 638.84 C 554.26 644.17 555.13 649.74 555.13 655.34 C 555.13 658.21 554.91 661.08 554.48 663.92 C 554.02 666.94 553.36 669.92 552.5 672.85 C 551.57 676.01 550.44 679.12 549.13 682.15 C 548.35 683.95 547.51 685.74 546.62 687.5 L 449.77 687.5 C 447.86 683.66 446.31 679.65 445.15 675.52 C 443.64 670.06 442.88 664.42 442.88 658.76 C 442.91 652.74 443.69 646.75 445.2 640.92 C 446.01 637.73 447 634.58 448.15 631.49 C 448.78 629.81 449.45 628.15 450.16 626.5 Z " fill-rule="evenodd" fill="rgb(0,0,0)"/><path d=" M 223.15 129.24 L 229.91 134.38 L 219.62 147.91 L 212.85 142.76 C 208.37 139.35 204.04 135.74 199.88 131.95 C 196.93 129.26 194.17 126.38 191.61 123.33 C 189.96 121.36 188.42 119.3 187.01 117.15 C 185.85 115.38 184.83 113.52 183.97 111.59 C 183.39 110.31 182.89 109 182.48 107.65 C 182.1 106.4 181.81 105.12 181.61 103.83 C 181.43 102.63 181.33 101.42 181.33 100.21 C 181.33 99.03 181.42 97.84 181.6 96.67 C 181.89 94.9 182.33 93.15 182.94 91.47 C 183.58 89.7 184.37 88 185.3 86.37 C 186.31 84.59 187.47 82.9 188.76 81.32 C 190.23 79.52 191.81 77.83 193.51 76.25 C 194.16 75.63 194.83 75.04 195.52 74.45 C 196.25 73.83 196.99 73.23 197.75 72.63 C 200.01 70.86 202.38 69.21 204.82 67.69 C 207.85 65.81 210.96 64.05 214.13 62.43 L 221.7 58.56 L 229.44 73.7 L 221.87 77.57 C 219.11 78.98 216.42 80.5 213.79 82.13 C 211.87 83.33 210.01 84.63 208.22 86.02 C 207.65 86.47 207.09 86.92 206.54 87.39 C 206.06 87.81 205.58 88.23 205.11 88.67 C 203.98 89.73 202.92 90.86 201.94 92.07 C 201.24 92.92 200.61 93.84 200.06 94.8 C 199.62 95.58 199.24 96.4 198.93 97.24 C 198.69 97.92 198.51 98.62 198.4 99.33 C 198.35 99.61 198.33 99.89 198.33 100.17 C 198.33 100.54 198.36 100.91 198.42 101.28 C 198.49 101.75 198.59 102.21 198.73 102.67 C 198.94 103.33 199.18 103.98 199.47 104.62 C 199.97 105.73 200.56 106.8 201.23 107.83 C 202.27 109.41 203.41 110.94 204.63 112.4 C 206.71 114.87 208.95 117.21 211.34 119.39 C 215.13 122.84 219.07 126.13 223.15 129.24 Z " fill="rgb(0,0,0)"/><path d=" M 778.71 77.57 L 771.14 73.7 L 778.87 58.56 L 786.44 62.43 C 790.47 64.49 794.38 66.77 798.16 69.25 C 801.05 71.15 803.79 73.28 806.36 75.6 C 808.18 77.25 809.89 79.02 811.47 80.91 C 812.86 82.56 814.09 84.33 815.17 86.19 C 816.13 87.84 816.94 89.58 817.6 91.37 C 818.22 93.09 818.68 94.86 818.97 96.67 C 819.15 97.77 819.24 98.89 819.24 100.01 C 819.25 101.15 819.18 102.28 819.03 103.41 C 818.86 104.63 818.61 105.82 818.28 107 C 817.93 108.25 817.5 109.48 817 110.68 C 816.18 112.66 815.19 114.56 814.05 116.38 C 812.66 118.58 811.14 120.68 809.49 122.69 C 808.82 123.51 808.14 124.31 807.44 125.1 C 806.67 125.96 805.88 126.81 805.08 127.64 C 802.76 130.05 800.34 132.35 797.83 134.54 C 794.55 137.39 791.18 140.13 787.72 142.76 L 780.96 147.91 L 770.66 134.38 L 777.43 129.24 C 780.59 126.83 783.67 124.32 786.67 121.71 C 788.81 119.85 790.86 117.9 792.83 115.85 C 793.48 115.17 794.13 114.48 794.76 113.77 C 795.3 113.16 795.83 112.54 796.35 111.91 C 797.55 110.45 798.66 108.91 799.67 107.31 C 800.3 106.3 800.85 105.24 801.31 104.14 C 801.55 103.58 801.75 102.99 801.92 102.4 C 802.03 101.99 802.12 101.57 802.18 101.14 C 802.22 100.8 802.25 100.46 802.24 100.12 C 802.24 99.85 802.22 99.59 802.18 99.33 C 802.06 98.61 801.88 97.89 801.63 97.21 C 801.31 96.34 800.92 95.5 800.46 94.71 C 799.87 93.69 799.2 92.73 798.44 91.82 C 797.37 90.54 796.2 89.33 794.96 88.21 C 793.03 86.47 790.98 84.88 788.81 83.45 C 785.55 81.31 782.18 79.34 778.71 77.57 Z " fill="rgb(0,0,0)"/><path d=" M 694.41 341.88 L 702.75 340.25 L 706.01 356.93 L 697.67 358.56 C 672.61 363.46 648.15 371.03 624.71 381.14 C 612.96 386.22 601.49 391.92 590.35 398.22 C 575.18 406.8 560.63 416.41 546.78 426.99 C 544.25 412.68 540.44 398.63 535.41 385 C 532.04 375.87 528.06 366.97 523.49 358.37 C 519.02 349.99 513.98 341.93 508.38 334.26 C 504.62 329.11 500.62 324.14 496.39 319.37 C 494.37 321.76 492.37 324.16 490.39 326.59 C 486.7 331.13 483.11 335.75 479.63 340.46 C 476.39 344.84 473.26 349.32 470.25 353.87 C 467.46 358.11 464.79 362.43 462.26 366.83 C 459.91 370.91 457.7 375.07 455.64 379.31 C 453.72 383.24 451.97 387.24 450.38 391.31 C 448.9 395.08 447.59 398.91 446.46 402.8 C 444.2 410.6 442.8 418.63 442.29 426.73 C 426.84 416.56 410.97 407.05 394.72 398.22 C 383.78 392.27 372.6 386.75 361.21 381.69 C 356.03 379.39 350.79 377.22 345.51 375.18 C 340.56 373.26 335.56 371.48 330.51 369.83 C 325.79 368.29 321.03 366.9 316.23 365.65 C 311.75 364.48 307.23 363.47 302.68 362.61 L 294.33 361.04 L 297.47 344.34 L 305.82 345.91 C 310.75 346.83 315.66 347.93 320.51 349.2 C 325.65 350.53 330.74 352.03 335.79 353.67 C 341.12 355.41 346.41 357.3 351.65 359.32 C 357.19 361.47 362.67 363.74 368.11 366.15 C 379.91 371.4 391.5 377.11 402.84 383.29 C 411.99 388.26 421.01 393.44 429.92 398.82 C 429.99 398.57 430.06 398.31 430.14 398.06 C 431.41 393.67 432.88 389.35 434.55 385.1 C 436.31 380.62 438.24 376.2 440.35 371.87 C 442.58 367.28 444.98 362.77 447.53 358.34 C 450.23 353.65 453.08 349.03 456.07 344.51 C 459.24 339.7 462.54 334.98 465.96 330.35 C 469.6 325.43 473.35 320.6 477.21 315.86 C 483.19 308.51 489.39 301.34 495.81 294.36 C 505.47 303.5 514.28 313.5 522.12 324.24 C 528.18 332.56 533.66 341.3 538.5 350.39 C 543.42 359.66 547.72 369.26 551.36 379.11 C 553.7 385.45 555.79 391.87 557.63 398.37 C 565.57 393.1 573.69 388.11 581.98 383.42 C 593.65 376.82 605.66 370.85 617.97 365.53 C 642.53 354.94 668.16 347.01 694.41 341.88 Z " fill="rgb(0,0,0)"/></g></svg>