<?xml version="1.0" encoding="UTF-8" standalone="no"?><!-- Generator: Gravit.io --><svg xmlns="http://www.w3.org/2000/svg" xmlns:xlink="http://www.w3.org/1999/xlink" style="isolation:isolate" viewBox="0 0 3000 3000" width="3000pt" height="3000pt"><defs><clipPath id="_clipPath_FHiChuDYl7fFXMl0jLzcuf6LeXMkf6LN"><rect width="3000" height="3000"/></clipPath></defs><g clip-path="url(#_clipPath_FHiChuDYl7fFXMl0jLzcuf6LeXMkf6LN)"><mask id="_mask_p9slmP44mOKWvBTHG347fPsLtL2iYTHK"><path d=" M 1567.725 2331.076 C 1892.405 2519.095 2409.014 2790.657 2600.938 2782.621 C 2622.996 2781.697 2632.808 2764.957 2622.836 2745.26 Q 2371.121 2248.076 2158.076 1850.049" fill="white" stroke="none"/></mask><path d=" M 1567.725 2331.076 C 1892.405 2519.095 2409.014 2790.657 2600.938 2782.621 C 2622.996 2781.697 2632.808 2764.957 2622.836 2745.26 Q 2371.121 2248.076 2158.076 1850.049" fill="none"/><path d=" M 1567.725 2331.076 C 1892.405 2519.095 2409.014 2790.657 2600.938 2782.621 C 2622.996 2781.697 2632.808 2764.957 2622.836 2745.26 Q 2371.121 2248.076 2158.076 1850.049" fill="none" mask="url(#_mask_p9slmP44mOKWvBTHG347fPsLtL2iYTHK)" vector-effect="non-scaling-stroke" stroke-width="60" stroke="rgb(0,0,0)" stroke-linejoin="miter" stroke-linecap="square" stroke-miterlimit="3"/><mask id="_mask_OffPgMUPHC3CKsEgYAVVxU2AjBD2N7Gj"><path d=" M 1402.461 568.988 C 1288.979 409.387 1198.205 308.014 1130.1 264.771 Q 780.946 43.076 161.854 854.656 C 135.075 889.762 149.097 915.806 193.146 912.78 Q 528.201 889.765 844.705 868.024 Q 646.77 1275.387 682.933 1498.434 Q 696.652 1583.052 789.122 1699.867" fill="white" stroke="none"/></mask><path d=" M 1402.461 568.988 C 1288.979 409.387 1198.205 308.014 1130.1 264.771 Q 780.946 43.076 161.854 854.656 C 135.075 889.762 149.097 915.806 193.146 912.78 Q 528.201 889.765 844.705 868.024 Q 646.77 1275.387 682.933 1498.434 Q 696.652 1583.052 789.122 1699.867" fill="none"/><path d=" M 1402.461 568.988 C 1288.979 409.387 1198.205 308.014 1130.1 264.771 Q 780.946 43.076 161.854 854.656 C 135.075 889.762 149.097 915.806 193.146 912.78 Q 528.201 889.765 844.705 868.024 Q 646.77 1275.387 682.933 1498.434 Q 696.652 1583.052 789.122 1699.867" fill="none" mask="url(#_mask_OffPgMUPHC3CKsEgYAVVxU2AjBD2N7Gj)" vector-effect="non-scaling-stroke" stroke-width="60" stroke="rgb(0,0,0)" stroke-linejoin="miter" stroke-linecap="square" stroke-miterlimit="3"/><mask id="_mask_FQlAzNWTKzmzO4fuAfMRvd1eB4kWovj0"><path d=" M 1836.9 264.771 Q 2186.054 43.076 2805.146 854.656 C 2831.925 889.762 2817.903 915.806 2773.854 912.78 Q 2438.799 889.765 2122.295 868.024 Q 2320.23 1275.387 2284.067 1498.434 Q 2247.905 1721.481 1665.075 2168.039 C 1542.541 2255.503 635.157 2793.888 366.062 2782.621 C 344.004 2781.697 334.192 2764.956 344.164 2745.26 Q 1487.747 486.465 1836.9 264.771 Z " fill="white" stroke="none"/></mask><path d=" M 1836.9 264.771 Q 2186.054 43.076 2805.146 854.656 C 2831.925 889.762 2817.903 915.806 2773.854 912.78 Q 2438.799 889.765 2122.295 868.024 Q 2320.23 1275.387 2284.067 1498.434 Q 2247.905 1721.481 1665.075 2168.039 C 1542.541 2255.503 635.157 2793.888 366.062 2782.621 C 344.004 2781.697 334.192 2764.956 344.164 2745.26 Q 1487.747 486.465 1836.9 264.771 Z " fill="none"/><path d=" M 1836.9 264.771 Q 2186.054 43.076 2805.146 854.656 C 2831.925 889.762 2817.903 915.806 2773.854 912.78 Q 2438.799 889.765 2122.295 868.024 Q 2320.23 1275.387 2284.067 1498.434 Q 2247.905 1721.481 1665.075 2168.039 C 1542.541 2255.503 635.157 2793.888 366.062 2782.621 C 344.004 2781.697 334.192 2764.956 344.164 2745.26 Q 1487.747 486.465 1836.9 264.771 Z " fill="none" mask="url(#_mask_FQlAzNWTKzmzO4fuAfMRvd1eB4kWovj0)" vector-effect="non-scaling-stroke" stroke-width="60" stroke="rgb(0,0,0)" stroke-linejoin="miter" stroke-linecap="square" stroke-miterlimit="3"/><mask id="_mask_m9d9NqTl9tMTkq3LucAnmmuCUDh6LWka"><path d=" M 892 2780.947 Q 1230.943 2436.611 1483 2433 Q 1735.057 2429.389 2075 2750 Q 1699.34 2894.976 1483 2900 Q 1266.66 2905.024 892 2780.947 Z " fill="white" stroke="none"/></mask><path d=" M 892 2780.947 Q 1230.943 2436.611 1483 2433 Q 1735.057 2429.389 2075 2750 Q 1699.34 2894.976 1483 2900 Q 1266.66 2905.024 892 2780.947 Z " fill="none"/><path d=" M 892 2780.947 Q 1230.943 2436.611 1483 2433 Q 1735.057 2429.389 2075 2750 Q 1699.34 2894.976 1483 2900 Q 1266.66 2905.024 892 2780.947 Z " fill="none" mask="url(#_mask_m9d9NqTl9tMTkq3LucAnmmuCUDh6LWka)" vector-effect="non-scaling-stroke" stroke-width="60" stroke="rgb(0,0,0)" stroke-linejoin="miter" stroke-linecap="square" stroke-miterlimit="3"/><mask id="_mask_JHdChMG0coNVk43QpQ0bFb62yNtzvQtG"><path d=" M 850.97 626.5 C 850.97 578.207 893.986 539 946.97 539 C 999.954 539 1042.97 578.207 1042.97 626.5 C 1042.97 674.793 999.954 714 946.97 714 C 893.986 714 850.97 674.793 850.97 626.5 Z " fill="white" stroke="none"/></mask><path d=" M 850.97 626.5 C 850.97 578.207 893.986 539 946.97 539 C 999.954 539 1042.97 578.207 1042.97 626.5 C 1042.97 674.793 999.954 714 946.97 714 C 893.986 714 850.97 674.793 850.97 626.5 Z " fill="none"/><path d=" M 850.97 626.5 C 850.97 578.207 893.986 539 946.97 539 C 999.954 539 1042.97 578.207 1042.97 626.5 C 1042.97 674.793 999.954 714 946.97 714 C 893.986 714 850.97 674.793 850.97 626.5 Z " fill="none" mask="url(#_mask_JHdChMG0coNVk43QpQ0bFb62yNtzvQtG)" vector-effect="non-scaling-stroke" stroke-width="60" stroke="rgb(0,0,0)" stroke-linejoin="miter" stroke-linecap="square" stroke-miterlimit="3"/><mask id="_mask_yQPlyfkCqAE78qyYL5zAeQDKZvOEgqiU"><path d=" M 1994.559 626.5 C 1994.559 578.207 2037.575 539 2090.559 539 C 2143.543 539 2186.559 578.207 2186.559 626.5 C 2186.559 674.793 2143.543 714 2090.559 714 C 2037.575 714 1994.559 674.793 1994.559 626.5 Z " fill="white" stroke="none"/></mask><path d=" M 1994.559 626.5 C 1994.559 578.207 2037.575 539 2090.559 539 C 2143.543 539 2186.559 578.207 2186.559 626.5 C 2186.559 674.793 2143.543 714 2090.559 714 C 2037.575 714 1994.559 674.793 1994.559 626.5 Z " fill="none"/><path d=" M 1994.559 626.5 C 1994.559 578.207 2037.575 539 2090.559 539 C 2143.543 539 2186.559 578.207 2186.559 626.5 C 2186.559 674.793 2143.543 714 2090.559 714 C 2037.575 714 1994.559 674.793 1994.559 626.5 Z " fill="none" mask="url(#_mask_yQPlyfkCqAE78qyYL5zAeQDKZvOEgqiU)" vector-effect="non-scaling-stroke" stroke-width="60" stroke="rgb(0,0,0)" stroke-linejoin="miter" stroke-linecap="square" stroke-miterlimit="3"/><mask id="_mask_iHup5dqp0nBe2arPCzpPg17WGNrEvFyu"><path d=" M 1387.5 2666.578 C 1387.5 2618.285 1430.516 2579.078 1483.5 2579.078 C 1536.484 2579.078 1579.5 2618.285 1579.5 2666.578 C 1579.5 2714.87 1536.484 2754.078 1483.5 2754.078 C 1430.516 2754.078 1387.5 2714.87 1387.5 2666.578 Z " fill="white" stroke="none"/></mask><path d=" M 1387.5 2666.578 C 1387.5 2618.285 1430.516 2579.078 1483.5 2579.078 C 1536.484 2579.078 1579.5 2618.285 1579.5 2666.578 C 1579.5 2714.87 1536.484 2754.078 1483.5 2754.078 C 1430.516 2754.078 1387.5 2714.87 1387.5 2666.578 Z " fill="none"/><path d=" M 1387.5 2666.578 C 1387.5 2618.285 1430.516 2579.078 1483.5 2579.078 C 1536.484 2579.078 1579.5 2618.285 1579.5 2666.578 C 1579.5 2714.87 1536.484 2754.078 1483.5 2754.078 C 1430.516 2754.078 1387.5 2714.87 1387.5 2666.578 Z " fill="none" mask="url(#_mask_iHup5dqp0nBe2arPCzpPg17WGNrEvFyu)" vector-effect="non-scaling-stroke" stroke-width="60" stroke="rgb(0,0,0)" stroke-linejoin="miter" stroke-linecap="square" stroke-miterlimit="3"/></g></svg>