<?xml version="1.0" encoding="UTF-8" standalone="no"?><!-- Generator: Gravit.io --><svg xmlns="http://www.w3.org/2000/svg" xmlns:xlink="http://www.w3.org/1999/xlink" style="isolation:isolate" viewBox="0 0 3000 3000" width="3000pt" height="3000pt"><defs><clipPath id="_clipPath_Z4WVzgMyVhy9kCtABu38kOdvr1irGr7f"><rect width="3000" height="3000"/></clipPath></defs><g clip-path="url(#_clipPath_Z4WVzgMyVhy9kCtABu38kOdvr1irGr7f)"><g/><path d=" M 1130.1 264.771 Q 780.946 43.076 161.854 854.656 C 135.075 889.762 149.097 915.806 193.146 912.78 Q 528.201 889.765 844.705 868.024 Q 646.77 1275.387 682.933 1498.434 Q 719.095 1721.481 1301.925 2168.039 C 1424.459 2255.503 2331.843 2793.888 2600.938 2782.621 C 2622.996 2781.697 2632.808 2764.956 2622.836 2745.26 Q 1479.253 486.465 1130.1 264.771 Z " fill="rgb(232,74,74)"/><path d=" M 1836.9 264.771 Q 2186.054 43.076 2805.146 854.656 C 2831.925 889.762 2817.903 915.806 2773.854 912.78 Q 2438.799 889.765 2122.295 868.024 Q 2320.23 1275.387 2284.067 1498.434 Q 2247.905 1721.481 1665.075 2168.039 C 1542.541 2255.503 635.157 2793.888 366.062 2782.621 C 344.004 2781.697 334.192 2764.956 344.164 2745.26 Q 1487.747 486.465 1836.9 264.771 Z " fill="rgb(255,153,0)"/><path d=" M 892 2780.947 Q 1230.943 2436.611 1483 2433 Q 1735.057 2429.389 2075 2750 Q 1699.34 2894.976 1483 2900 Q 1266.66 2905.024 892 2780.947 Z " fill="rgb(61,155,255)"/><ellipse vector-effect="non-scaling-stroke" cx="946.969702905131" cy="626.5" rx="96" ry="87.5" fill="rgb(255,255,255)"/><ellipse vector-effect="non-scaling-stroke" cx="2090.558933524655" cy="626.5" rx="96" ry="87.5" fill="rgb(255,255,255)"/><ellipse vector-effect="non-scaling-stroke" cx="1483.5" cy="2666.577650923804" rx="96" ry="87.5" fill="rgb(255,255,255)"/></g></svg>