<?xml version="1.0" encoding="UTF-8" standalone="no"?><!-- Generator: Gravit.io --><svg xmlns="http://www.w3.org/2000/svg" xmlns:xlink="http://www.w3.org/1999/xlink" style="isolation:isolate" viewBox="0 0 3000 3000" width="3000pt" height="3000pt"><defs><clipPath id="_clipPath_DQDn6QWnIqKCuTbtHDgideQOHt3xsjas"><rect width="3000" height="3000"/></clipPath></defs><g clip-path="url(#_clipPath_DQDn6QWnIqKCuTbtHDgideQOHt3xsjas)"><path d=" M 2158.076 1850.049 C 2227.899 1980.498 2300.838 2118.935 2376.892 2265.361 C 2427.302 2362.415 2479.081 2462.979 2532.229 2567.053 Q 2576.888 2654.505 2622.836 2745.26 C 2632.808 2764.957 2622.996 2781.697 2600.938 2782.621 C 2543.186 2785.039 2456.034 2762.14 2353.558 2723.818 C 2115.485 2634.789 1794.705 2462.518 1567.725 2331.076 L 2158.076 1850.049 Z  M 2601.85 2755.88 L 2599.4 2742.65 C 2599.38 2742.65 2599.37 2742.65 2599.36 2742.65 C 2597.06 2742.75 2594.75 2742.8 2592.44 2742.79 C 2585.98 2742.78 2579.52 2742.48 2573.09 2741.91 C 2565.56 2741.25 2558.06 2740.34 2550.59 2739.18 C 2542.15 2737.88 2533.75 2736.35 2525.39 2734.6 C 2516.14 2732.67 2506.93 2730.54 2497.76 2728.21 C 2487.78 2725.68 2477.85 2722.98 2467.97 2720.1 C 2457.33 2717.01 2446.74 2713.76 2436.21 2710.36 C 2424.99 2706.73 2413.81 2702.97 2402.69 2699.07 C 2390.94 2694.96 2379.24 2690.72 2367.58 2686.36 C 2352.61 2680.75 2337.69 2674.98 2322.84 2669.04 C 2307.27 2662.81 2291.76 2656.44 2276.31 2649.92 C 2243.63 2636.12 2211.17 2621.81 2178.93 2607.02 L 2077.67 2559.13 L 1974.68 2507.73 L 1872.1 2454.3 L 1772.02 2400.3 L 1638.06 2325.37 L 2145.69 1911.74 L 2229.76 2070.36 L 2341.39 2283.8 L 2496.6 2585.24 L 2541.15 2672.67 C 2556.51 2702.88 2571.84 2733.1 2587.15 2763.33 L 2601.85 2755.88 Z " fill-rule="evenodd" fill="rgb(0,0,0)"/><path d=" M 789.122 1699.867 Q 696.652 1583.052 682.933 1498.434 Q 646.77 1275.387 844.705 868.024 Q 528.201 889.765 193.146 912.78 C 149.097 915.806 135.075 889.762 161.854 854.656 Q 780.946 43.076 1130.1 264.771 C 1198.205 308.014 1288.979 409.387 1402.461 568.988 L 789.122 1699.867 Z  M 198.71 872.3 C 219.65 844.95 240.89 817.83 262.42 790.94 C 283.19 765 304.3 739.34 325.74 713.96 C 344.92 691.25 364.41 668.79 384.18 646.59 C 401.87 626.74 419.85 607.14 438.12 587.81 C 460.77 563.83 483.92 540.33 507.55 517.31 C 527.82 497.56 548.56 478.31 569.76 459.55 C 588.06 443.35 606.76 427.6 625.82 412.29 C 642.29 399.08 659.11 386.32 676.28 374.03 C 699.3 357.56 723.03 342.11 747.4 327.73 C 767.07 316.12 787.36 305.57 808.16 296.13 C 825.46 288.28 843.17 281.36 861.22 275.42 C 876.36 270.42 891.81 266.38 907.46 263.31 C 917.28 261.38 927.18 259.89 937.13 258.83 C 946.27 257.87 955.44 257.33 964.63 257.22 C 973.29 257.12 981.95 257.43 990.59 258.15 C 998.86 258.84 1007.09 259.93 1015.25 261.42 C 1023.29 262.88 1031.24 264.74 1039.1 266.98 C 1046.99 269.24 1054.78 271.88 1062.42 274.89 C 1070.27 277.98 1077.96 281.45 1085.48 285.29 C 1093.4 289.34 1101.13 293.76 1108.64 298.53 C 1112.46 300.96 1116.22 303.49 1119.9 306.12 C 1124.01 309.05 1128.05 312.07 1132.01 315.18 C 1136.38 318.61 1140.67 322.11 1144.89 325.7 C 1149.49 329.61 1154.01 333.59 1158.47 337.65 C 1168.47 346.79 1178.21 356.21 1187.67 365.9 C 1198.51 376.99 1209.1 388.33 1219.43 399.89 C 1231.06 412.91 1242.45 426.13 1253.6 439.55 C 1265.99 454.47 1278.15 469.56 1290.09 484.84 C 1303.22 501.63 1316.15 518.59 1328.85 535.71 C 1337.77 547.72 1346.61 559.79 1355.37 571.92 L 783.95 1625.5 C 783.35 1624.63 782.75 1623.75 782.15 1622.87 C 772.89 1609.27 764.25 1595.25 756.27 1580.86 C 747.01 1564.16 738.99 1546.8 732.25 1528.93 C 727.75 1516.99 724.46 1504.63 722.42 1492.03 C 721 1483.3 719.9 1474.52 719.12 1465.71 C 718.25 1455.9 717.7 1446.06 717.47 1436.22 C 717.3 1428.77 717.3 1421.32 717.47 1413.88 C 717.65 1405.79 718.01 1397.7 718.53 1389.62 C 718.92 1383.64 719.4 1377.67 719.97 1371.71 C 720.56 1365.37 721.25 1359.04 722.03 1352.72 C 722.6 1348.06 723.21 1343.41 723.88 1338.77 C 724.57 1333.91 725.3 1329.07 726.08 1324.23 C 726.66 1320.64 727.26 1317.07 727.89 1313.49 C 728.54 1309.8 729.21 1306.12 729.9 1302.44 C 732.52 1288.57 735.45 1274.76 738.69 1261.02 C 742.33 1245.59 746.28 1230.23 750.55 1214.97 C 753.83 1203.22 757.28 1191.52 760.9 1179.88 C 764.83 1167.21 768.92 1154.6 773.18 1142.04 C 776.26 1132.96 779.43 1123.91 782.67 1114.89 C 786.1 1105.33 789.62 1095.8 793.21 1086.3 C 795.82 1079.39 798.47 1072.51 801.17 1065.63 C 803.97 1058.48 806.81 1051.33 809.7 1044.21 C 811.81 1038.98 813.95 1033.75 816.11 1028.54 C 818.33 1023.17 820.57 1017.81 822.84 1012.46 C 831.43 992.15 840.29 971.96 849.43 951.9 C 859.57 929.64 869.99 907.51 880.68 885.51 C 883.75 879.2 885.1 872.2 884.61 865.2 C 884.11 858.21 881.79 851.46 877.86 845.65 C 873.94 839.84 868.56 835.16 862.26 832.08 C 855.96 829 848.96 827.64 841.96 828.12 L 525.46 849.86 L 525.46 849.86 L 198.71 872.3 Z " fill-rule="evenodd" fill="rgb(0,0,0)"/><path d=" M 1836.9 264.771 Q 2186.054 43.076 2805.146 854.656 C 2831.925 889.762 2817.903 915.806 2773.854 912.78 Q 2438.799 889.765 2122.295 868.024 Q 2320.23 1275.387 2284.067 1498.434 Q 2247.905 1721.481 1665.075 2168.039 C 1542.541 2255.503 635.157 2793.888 366.062 2782.621 C 344.004 2781.697 334.192 2764.956 344.164 2745.26 Q 1487.747 486.465 1836.9 264.771 Z  M 390.57 2742.18 C 436.53 2651.48 482.74 2560.91 529.18 2470.46 C 573.65 2383.87 618.39 2297.43 663.41 2211.14 C 703.4 2134.48 743.65 2057.95 784.13 1981.56 C 820.1 1913.69 856.31 1845.96 892.77 1778.36 C 953.95 1664.93 1015.95 1551.94 1078.76 1439.41 C 1128.34 1350.59 1178.74 1262.23 1229.94 1174.33 C 1270.41 1104.87 1311.51 1035.78 1353.24 967.08 C 1386.19 912.83 1419.78 858.96 1453.98 805.5 C 1481.03 763.21 1508.57 721.24 1536.59 679.6 C 1558.72 646.71 1581.34 614.14 1604.43 581.91 C 1626.58 550.99 1649.3 520.47 1672.56 490.37 C 1689.91 467.93 1707.79 445.92 1726.19 424.35 C 1738 410.52 1750.09 396.92 1762.45 383.58 C 1772.09 373.16 1782 362.99 1792.17 353.09 C 1798.99 346.44 1805.95 339.94 1813.05 333.58 C 1818.79 328.45 1824.66 323.46 1830.67 318.62 C 1835.59 314.65 1840.62 310.8 1845.74 307.09 C 1849.85 304.11 1854.06 301.26 1858.34 298.54 C 1865.72 293.86 1873.3 289.51 1881.07 285.52 C 1888.44 281.74 1895.98 278.31 1903.68 275.25 C 1911.16 272.26 1918.79 269.64 1926.53 267.38 C 1934.21 265.14 1941.99 263.27 1949.86 261.77 C 1957.83 260.25 1965.87 259.12 1973.95 258.37 C 1982.36 257.59 1990.81 257.2 1999.26 257.21 C 2008.19 257.21 2017.11 257.63 2026 258.46 C 2035.64 259.36 2045.24 260.67 2054.77 262.41 C 2062.87 263.88 2070.91 265.63 2078.89 267.65 C 2087.59 269.85 2096.21 272.33 2104.76 275.08 C 2111.31 277.19 2117.81 279.44 2124.26 281.84 C 2131.19 284.42 2138.06 287.14 2144.87 290.01 C 2149.96 292.16 2155.02 294.38 2160.05 296.68 C 2165.36 299.11 2170.63 301.61 2175.87 304.18 C 2179.76 306.1 2183.63 308.05 2187.49 310.05 C 2191.5 312.12 2195.49 314.23 2199.46 316.39 C 2202.41 317.99 2205.36 319.61 2208.3 321.26 C 2211.32 322.96 2214.33 324.67 2217.33 326.41 C 2228.9 333.11 2240.31 340.09 2251.53 347.35 C 2264.08 355.47 2276.45 363.87 2288.63 372.54 C 2292.52 375.31 2296.4 378.11 2300.26 380.94 C 2304.25 383.86 2308.23 386.81 2312.18 389.79 C 2326.75 400.75 2341.08 412.03 2355.15 423.62 C 2371.03 436.7 2386.66 450.1 2402.02 463.8 C 2416.22 476.45 2430.21 489.34 2443.99 502.46 C 2459.27 517 2474.34 531.77 2489.19 546.76 C 2499.88 557.56 2510.47 568.46 2520.95 579.46 C 2532.2 591.25 2543.33 603.15 2554.36 615.15 C 2562.32 623.82 2570.22 632.53 2578.07 641.29 C 2586.31 650.48 2594.5 659.72 2602.63 669.01 C 2608.55 675.78 2614.44 682.57 2620.31 689.39 C 2626.38 696.44 2632.42 703.51 2638.43 710.61 C 2660.32 736.46 2681.86 762.6 2703.05 789.03 C 2725.1 816.54 2746.85 844.3 2768.29 872.3 L 2441.54 849.86 L 2125.04 828.12 C 2118.04 827.64 2111.04 829 2104.74 832.08 C 2098.44 835.16 2093.06 839.84 2089.14 845.65 C 2085.21 851.46 2082.89 858.21 2082.39 865.2 C 2081.9 872.2 2083.25 879.2 2086.32 885.51 C 2101.26 916.25 2115.65 947.26 2129.5 978.52 C 2141.44 1005.48 2152.83 1032.68 2163.66 1060.11 C 2173.05 1083.89 2181.96 1107.85 2190.37 1131.99 C 2197.66 1152.91 2204.46 1174 2210.76 1195.23 C 2220.45 1227.86 2228.71 1260.9 2235.52 1294.25 C 2240.83 1320.25 2244.71 1346.52 2247.15 1372.94 C 2249.18 1394.93 2249.95 1417.02 2249.45 1439.1 C 2249.05 1456.84 2247.42 1474.52 2244.58 1492.03 C 2243.99 1495.69 2243.28 1499.32 2242.45 1502.93 C 2241.51 1507.02 2240.45 1511.08 2239.27 1515.1 C 2238.38 1518.14 2237.43 1521.17 2236.41 1524.17 C 2235.3 1527.46 2234.12 1530.73 2232.89 1533.97 C 2231.97 1536.38 2231.02 1538.77 2230.04 1541.15 C 2228.99 1543.69 2227.92 1546.21 2226.81 1548.72 C 2225.99 1550.58 2225.15 1552.43 2224.3 1554.27 C 2223.41 1556.19 2222.5 1558.11 2221.57 1560.02 C 2218.25 1566.88 2214.74 1573.65 2211.05 1580.31 C 2206.74 1588.07 2202.25 1595.72 2197.57 1603.26 C 2195.03 1607.35 2192.45 1611.4 2189.81 1615.43 C 2186.98 1619.76 2184.09 1624.07 2181.15 1628.34 C 2179.02 1631.45 2176.87 1634.53 2174.69 1637.6 C 2172.4 1640.84 2170.08 1644.05 2167.74 1647.25 C 2159.79 1658.12 2151.6 1668.8 2143.17 1679.3 C 2133.28 1691.63 2123.16 1703.76 2112.8 1715.7 C 2109.9 1719.04 2106.99 1722.37 2104.06 1725.68 C 2101 1729.13 2097.93 1732.57 2094.84 1735.99 C 2083.98 1748.04 2072.93 1759.92 2061.71 1771.63 C 2048.88 1785.02 2035.88 1798.23 2022.7 1811.26 C 2010.49 1823.34 1998.16 1835.28 1985.69 1847.08 C 1971.77 1860.26 1957.71 1873.3 1943.53 1886.21 C 1933.38 1895.44 1923.18 1904.61 1912.91 1913.71 C 1901.88 1923.49 1890.78 1933.21 1879.62 1942.87 C 1871.61 1949.8 1863.57 1956.7 1855.5 1963.57 C 1847.02 1970.79 1838.52 1977.97 1829.98 1985.12 C 1823.79 1990.31 1817.58 1995.49 1811.36 2000.65 C 1804.92 2005.98 1798.46 2011.31 1792 2016.61 C 1768.58 2035.82 1744.99 2054.82 1721.24 2073.61 L 1641.33 2135.84 C 1637.32 2138.69 1633.27 2141.48 1629.19 2144.22 C 1623.45 2148.08 1617.68 2151.89 1611.88 2155.66 C 1596.4 2165.71 1580.82 2175.6 1565.14 2185.33 C 1544.92 2197.92 1524.61 2210.36 1504.21 2222.67 C 1479.98 2237.3 1455.67 2251.78 1431.27 2266.13 L 1257.6 2365.66 L 1160.95 2418.87 L 1060.51 2472.45 C 1026.58 2490.24 992.51 2507.76 958.3 2524.98 L 856.39 2575.03 L 756.88 2621.14 C 740.86 2628.31 724.8 2635.35 708.68 2642.27 C 693.13 2648.95 677.53 2655.49 661.87 2661.88 C 646.88 2668.01 631.84 2673.98 616.73 2679.79 C 602.4 2685.31 588.01 2690.65 573.55 2695.81 C 559.97 2700.66 546.33 2705.31 532.62 2709.76 C 519.91 2713.9 507.12 2717.8 494.27 2721.47 C 482.53 2724.83 470.71 2727.93 458.83 2730.76 C 448.19 2733.3 437.48 2735.54 426.71 2737.47 C 417.34 2739.16 407.91 2740.5 398.44 2741.49 C 395.82 2741.76 393.19 2741.99 390.57 2742.18 Z " fill-rule="evenodd" fill="rgb(0,0,0)"/><path d=" M 892 2780.947 Q 1230.943 2436.611 1483 2433 Q 1735.057 2429.389 2075 2750 Q 1699.34 2894.976 1483 2900 Q 1266.66 2905.024 892 2780.947 Z  M 966.97 2763.07 C 978.11 2752.36 989.35 2741.75 1000.69 2731.25 C 1023.95 2709.72 1047.79 2688.83 1072.19 2668.59 C 1093.13 2651.22 1114.53 2634.43 1136.38 2618.23 C 1155.15 2604.31 1174.34 2590.99 1193.95 2578.28 C 1223.19 2559.31 1253.49 2542.03 1284.7 2526.51 C 1309.24 2514.3 1334.62 2503.84 1360.64 2495.21 C 1371.84 2491.5 1383.18 2488.18 1394.62 2485.27 C 1405.03 2482.62 1415.54 2480.37 1426.12 2478.52 C 1435.94 2476.81 1445.82 2475.48 1455.73 2474.53 C 1464.99 2473.64 1474.28 2473.13 1483.57 2473 C 1492.62 2472.87 1501.68 2473.08 1510.71 2473.64 C 1520.31 2474.23 1529.88 2475.16 1539.41 2476.44 C 1549.6 2477.81 1559.73 2479.55 1569.78 2481.64 C 1580.71 2483.92 1591.55 2486.57 1602.3 2489.57 C 1607.58 2491.05 1612.85 2492.61 1618.08 2494.25 C 1623.55 2495.97 1629 2497.77 1634.42 2499.64 C 1638.52 2501.06 1642.59 2502.53 1646.66 2504.03 C 1650.86 2505.59 1655.05 2507.2 1659.22 2508.85 C 1662.37 2510.09 1665.51 2511.36 1668.64 2512.65 C 1671.85 2513.98 1675.06 2515.33 1678.25 2516.71 C 1690.99 2522.2 1703.57 2528.05 1715.98 2534.25 C 1729.77 2541.14 1743.38 2548.39 1756.8 2555.98 C 1767.66 2562.12 1778.4 2568.47 1789.02 2575.03 C 1800.56 2582.15 1811.98 2589.48 1823.27 2597 C 1831.51 2602.49 1839.68 2608.08 1847.78 2613.77 C 1856.38 2619.81 1864.91 2625.94 1873.37 2632.16 C 1879.55 2636.71 1885.69 2641.31 1891.8 2645.95 C 1898.17 2650.8 1904.5 2655.69 1910.8 2660.63 C 1915.43 2664.27 1920.05 2667.93 1924.64 2671.62 C 1929.38 2675.42 1934.1 2679.24 1938.79 2683.09 C 1956.48 2697.58 1973.89 2712.4 1991.04 2727.53 C 1994.04 2730.18 1997.04 2732.84 2000.03 2735.51 C 1991.35 2738.71 1982.66 2741.88 1973.95 2745.01 C 1948.32 2754.25 1922.56 2763.17 1896.7 2771.76 C 1873.78 2779.37 1850.77 2786.7 1827.67 2793.73 C 1807.22 2799.96 1786.68 2805.89 1766.06 2811.53 C 1735.33 2819.94 1704.4 2827.58 1673.29 2834.46 C 1648.04 2840.03 1622.63 2844.85 1597.1 2848.88 C 1576.15 2852.2 1555.11 2854.87 1534 2856.91 C 1516.73 2858.57 1499.41 2859.61 1482.07 2860.01 C 1478.13 2860.1 1474.2 2860.16 1470.26 2860.18 C 1466.13 2860.21 1462.01 2860.2 1457.89 2860.15 C 1443.47 2860 1429.06 2859.46 1414.67 2858.54 C 1397.96 2857.47 1381.27 2856.01 1364.62 2854.17 C 1348.93 2852.44 1333.28 2850.41 1317.67 2848.08 C 1299.94 2845.44 1282.26 2842.49 1264.63 2839.25 C 1251.92 2836.92 1239.25 2834.44 1226.6 2831.83 C 1212.84 2828.99 1199.11 2826.01 1185.42 2822.89 C 1175.56 2820.64 1165.72 2818.33 1155.9 2815.95 C 1145.5 2813.43 1135.12 2810.85 1124.75 2808.2 C 1117.24 2806.28 1109.74 2804.32 1102.25 2802.33 C 1094.45 2800.27 1086.66 2798.17 1078.88 2796.03 C 1051.49 2788.51 1024.2 2780.62 997.02 2772.35 C 986.99 2769.29 976.98 2766.2 966.97 2763.07 Z " fill-rule="evenodd" fill="rgb(0,0,0)"/><path d=" M 850.97 626.5 C 850.97 578.207 893.986 539 946.97 539 C 999.954 539 1042.97 578.207 1042.97 626.5 C 1042.97 674.793 999.954 714 946.97 714 C 893.986 714 850.97 674.793 850.97 626.5 Z  M 890.97 626.5 C 890.98 620.57 892.28 614.71 894.78 609.33 C 896.08 606.55 897.65 603.91 899.48 601.45 C 901.42 598.84 903.6 596.43 906 594.25 C 911.24 589.5 917.32 585.76 923.93 583.23 C 931.28 580.41 939.1 578.98 946.97 579 C 954.84 578.98 962.66 580.41 970.01 583.23 C 976.62 585.76 982.7 589.5 987.94 594.25 C 990.34 596.43 992.52 598.84 994.46 601.45 C 996.29 603.91 997.86 606.55 999.16 609.33 C 1001.66 614.71 1002.96 620.57 1002.97 626.5 C 1002.96 632.43 1001.66 638.29 999.16 643.67 C 997.86 646.45 996.29 649.09 994.46 651.55 C 992.52 654.16 990.34 656.57 987.94 658.75 C 982.7 663.5 976.62 667.24 970.01 669.77 C 962.66 672.59 954.84 674.02 946.97 674 C 939.1 674.02 931.28 672.59 923.93 669.77 C 917.32 667.24 911.24 663.5 906 658.75 C 903.6 656.57 901.42 654.16 899.48 651.55 C 897.65 649.09 896.08 646.45 894.78 643.67 C 892.28 638.29 890.98 632.43 890.97 626.5 Z " fill-rule="evenodd" fill="rgb(0,0,0)"/><path d=" M 1994.559 626.5 C 1994.559 578.207 2037.575 539 2090.559 539 C 2143.543 539 2186.559 578.207 2186.559 626.5 C 2186.559 674.793 2143.543 714 2090.559 714 C 2037.575 714 1994.559 674.793 1994.559 626.5 Z  M 2034.56 626.5 C 2034.57 620.57 2035.87 614.71 2038.37 609.33 C 2039.67 606.55 2041.24 603.91 2043.07 601.45 C 2045.01 598.84 2047.19 596.43 2049.59 594.25 C 2054.83 589.5 2060.91 585.76 2067.52 583.23 C 2074.87 580.41 2082.68 578.98 2090.56 579 C 2098.43 578.98 2106.24 580.41 2113.6 583.23 C 2120.21 585.76 2126.29 589.5 2131.53 594.25 C 2133.93 596.43 2136.11 598.84 2138.05 601.45 C 2139.88 603.91 2141.45 606.55 2142.75 609.33 C 2145.25 614.71 2146.55 620.57 2146.56 626.5 C 2146.55 632.43 2145.25 638.29 2142.75 643.67 C 2141.45 646.45 2139.88 649.09 2138.05 651.55 C 2136.11 654.16 2133.93 656.57 2131.53 658.75 C 2126.29 663.5 2120.21 667.24 2113.6 669.77 C 2106.24 672.59 2098.43 674.02 2090.56 674 C 2082.68 674.02 2074.87 672.59 2067.52 669.77 C 2060.91 667.24 2054.83 663.5 2049.59 658.75 C 2047.19 656.57 2045.01 654.16 2043.07 651.55 C 2041.24 649.09 2039.67 646.45 2038.37 643.67 C 2035.87 638.29 2034.57 632.43 2034.56 626.5 Z " fill-rule="evenodd" fill="rgb(0,0,0)"/><path d=" M 1387.5 2666.578 C 1387.5 2618.285 1430.516 2579.078 1483.5 2579.078 C 1536.484 2579.078 1579.5 2618.285 1579.5 2666.578 C 1579.5 2714.87 1536.484 2754.078 1483.5 2754.078 C 1430.516 2754.078 1387.5 2714.87 1387.5 2666.578 Z  M 1427.5 2666.58 C 1427.51 2660.65 1428.81 2654.79 1431.31 2649.41 C 1432.61 2646.63 1434.18 2643.99 1436.01 2641.52 C 1437.95 2638.92 1440.13 2636.51 1442.53 2634.33 C 1447.77 2629.57 1453.85 2625.84 1460.46 2623.31 C 1467.81 2620.49 1475.63 2619.05 1483.5 2619.08 C 1491.37 2619.05 1499.19 2620.49 1506.54 2623.31 C 1513.15 2625.84 1519.23 2629.57 1524.47 2634.33 C 1526.87 2636.51 1529.05 2638.92 1530.99 2641.52 C 1532.82 2643.99 1534.39 2646.63 1535.69 2649.41 C 1538.19 2654.79 1539.49 2660.65 1539.5 2666.58 C 1539.49 2672.51 1538.19 2678.37 1535.69 2683.74 C 1534.39 2686.52 1532.82 2689.17 1530.99 2691.63 C 1529.05 2694.23 1526.87 2696.65 1524.47 2698.83 C 1519.23 2703.58 1513.15 2707.32 1506.54 2709.85 C 1499.19 2712.67 1491.37 2714.1 1483.5 2714.08 C 1475.63 2714.1 1467.81 2712.67 1460.46 2709.85 C 1453.85 2707.32 1447.77 2703.58 1442.53 2698.83 C 1440.13 2696.65 1437.95 2694.23 1436.01 2691.63 C 1434.18 2689.17 1432.61 2686.52 1431.31 2683.74 C 1428.81 2678.37 1427.51 2672.51 1427.5 2666.58 Z " fill-rule="evenodd" fill="rgb(0,0,0)"/></g></svg>