<?xml version="1.0" encoding="UTF-8" standalone="no"?><!-- Generator: Gravit.io --><svg xmlns="http://www.w3.org/2000/svg" xmlns:xlink="http://www.w3.org/1999/xlink" style="isolation:isolate" viewBox="0 0 1000 1000" width="1000pt" height="1000pt"><defs><clipPath id="_clipPath_xdaZJiSBTQdnzx3cM4rGm751hZl0INi2"><rect width="1000" height="1000"/></clipPath></defs><g clip-path="url(#_clipPath_xdaZJiSBTQdnzx3cM4rGm751hZl0INi2)"><clipPath id="_clipPath_eQCGqVjcm5A4SneXcEVUyThBH9mzoTa8"><rect x="0" y="0" width="1000" height="1000" transform="matrix(1,0,0,1,0,0)" fill="rgb(255,255,255)"/></clipPath><g clip-path="url(#_clipPath_eQCGqVjcm5A4SneXcEVUyThBH9mzoTa8)"><g><path d=" M 922.68 34.56 L 917.05 84.12 L 658.46 384.64 L 793.97 369.41 L 790.11 402.25 L 737.35 414.73 L 759.68 452.58 L 724.82 460.45 L 696.78 432.41 L 604.57 440.54 L 506.58 536.96 L 422.9 620.11 C 400.31 642.67 377.82 665.34 355.44 688.1 C 346.19 697.51 336.98 706.94 327.8 716.41 C 320.11 724.33 312.46 732.29 304.84 740.28 L 259.93 817.55 L 216.73 829.47 L 202.81 859.5 L 172.36 904.18 C 171.2 905.88 169.38 907.04 167.34 907.36 C 163.98 907.89 160.6 908.32 157.21 908.64 C 154.14 908.93 151.06 909.08 147.98 909.09 C 144.85 909.11 141.71 908.91 138.61 908.5 C 135.63 908.11 132.7 907.48 129.83 906.61 C 127 905.75 124.24 904.65 121.58 903.33 C 118.88 901.98 116.27 900.43 113.79 898.71 C 111.16 896.88 108.64 894.91 106.23 892.81 C 103.59 890.52 101.04 888.13 98.57 885.65 C 95.81 882.87 93.1 880.03 90.46 877.14 C 87.46 873.86 84.49 870.55 81.55 867.2 C 80.27 865.73 79.6 863.82 79.7 861.87 C 79.81 859.92 80.66 858.08 82.1 856.75 L 195.51 751.67 L 297.38 641.55 L 328.03 564.91 L 369.03 567.96 L 356.4 603.19 L 422.25 542.61 L 503.95 463.44 C 529.57 437.84 554.76 411.81 579.5 385.36 C 602.79 360.46 625.62 335.14 647.99 309.41 L 688.51 200.74 L 713.43 225.65 L 708.65 248.6 L 922.68 34.56 L 922.68 34.56 Z  M 902.93 75.52 L 902.67 77.84 L 622.17 403.81 L 776.87 386.42 L 776.44 390.07 L 714.09 404.82 L 736.31 442.48 L 729.59 444 L 702.43 416.85 L 600.58 425.83 C 598.85 425.99 597.23 426.73 595.99 427.95 L 496.04 526.29 L 412.29 609.5 L 344.74 677.59 C 344.74 677.59 344.74 677.59 344.74 677.59 C 335.47 687.02 326.24 696.48 317.03 705.96 C 309.11 714.13 301.22 722.33 293.37 730.57 C 292.97 730.99 292.61 731.47 292.32 731.97 L 250.03 804.72 L 206.04 816.85 L 189.72 852.07 L 161.81 893.01 C 159.81 893.29 157.81 893.52 155.8 893.71 C 153.18 893.96 150.55 894.09 147.92 894.09 C 145.46 894.1 143 893.95 140.56 893.63 C 138.4 893.34 136.27 892.88 134.18 892.25 C 132.15 891.64 130.17 890.85 128.27 889.91 C 126.22 888.88 124.24 887.7 122.35 886.39 C 120.17 884.88 118.08 883.24 116.08 881.5 C 113.71 879.44 111.42 877.29 109.21 875.07 C 106.59 872.44 104.03 869.76 101.53 867.02 C 100.24 865.61 98.95 864.19 97.68 862.77 L 206.13 762.28 L 310.28 649.7 L 337.88 580.69 L 348.26 581.46 L 332.3 625.95 C 331.74 627.52 331.72 629.23 332.23 630.82 C 332.75 632.4 333.78 633.77 335.16 634.7 C 336.54 635.63 338.19 636.08 339.86 635.97 C 341.52 635.86 343.1 635.2 344.34 634.09 L 432.52 553.54 L 514.56 474.05 C 540.29 448.33 565.6 422.18 590.45 395.61 C 614.18 370.24 637.43 344.44 660.21 318.22 C 660.8 317.54 661.26 316.76 661.57 315.92 L 694.41 227.85 L 697.09 230.53 L 683.7 294.76 L 902.93 75.52 L 902.93 75.52 Z " fill-rule="evenodd" fill="rgb(255,255,255)"/><path d=" M 550.06 537.62 L 544.64 532.43 L 555.01 521.6 L 560.43 526.78 C 590.46 555.52 620.92 583.79 651.81 611.6 L 639.17 576.36 L 680.18 573.32 L 710.83 649.95 L 812.69 760.08 L 926.11 865.16 C 927.54 866.49 928.4 868.32 928.5 870.27 C 928.6 872.22 927.94 874.14 926.65 875.61 C 923.72 878.95 920.75 882.27 917.74 885.55 C 915.1 888.44 912.4 891.28 909.64 894.05 C 907.17 896.53 904.62 898.92 901.98 901.22 C 899.57 903.32 897.04 905.29 894.42 907.11 C 891.93 908.84 889.33 910.39 886.62 911.74 C 883.97 913.06 881.21 914.15 878.38 915.02 C 875.51 915.88 872.57 916.51 869.6 916.91 C 866.49 917.31 863.36 917.51 860.23 917.5 C 857.14 917.49 854.06 917.34 850.99 917.05 C 847.61 916.73 844.23 916.3 840.87 915.77 C 838.83 915.44 837.01 914.29 835.85 912.58 L 805.4 867.91 L 791.48 837.87 L 748.28 825.96 L 703.37 748.68 L 670.79 714.93 L 629.97 673.39 L 581.44 624.67 L 525.15 568.69 L 519.82 563.41 L 530.37 552.75 L 535.7 558.03 L 592.04 614.05 L 640.62 662.84 L 681.53 704.45 C 692.7 715.9 703.8 727.4 714.83 738.97 C 715.24 739.4 715.59 739.87 715.89 740.38 L 758.17 813.13 L 802.17 825.26 L 818.49 860.48 L 846.39 901.42 C 848.39 901.69 850.4 901.92 852.41 902.11 C 855.02 902.36 857.65 902.49 860.28 902.5 C 862.74 902.51 865.2 902.35 867.64 902.04 C 869.8 901.75 871.94 901.29 874.03 900.66 C 876.06 900.04 878.03 899.26 879.93 898.31 C 881.99 897.28 883.97 896.11 885.85 894.8 C 888.03 893.28 890.13 891.65 892.13 889.9 C 894.5 887.84 896.79 885.7 899 883.47 C 901.62 880.85 904.17 878.16 906.67 875.43 C 907.97 874.02 909.25 872.6 910.53 871.17 L 802.07 770.69 L 697.93 658.1 L 670.33 589.09 L 659.95 589.86 L 675.9 634.36 C 676.46 635.93 676.49 637.64 675.97 639.22 C 675.45 640.8 674.42 642.17 673.04 643.1 C 671.66 644.04 670.01 644.48 668.35 644.37 C 666.69 644.27 665.11 643.61 663.86 642.5 C 625.28 608.25 587.34 573.29 550.06 537.62 Z  M 449.71 472.83 L 455.05 478.09 L 444.53 488.78 L 439.19 483.52 L 395.43 440.54 L 303.22 432.41 L 275.18 460.45 L 240.32 452.58 L 262.65 414.73 L 209.89 402.25 L 206.03 369.41 L 341.54 384.64 L 82.95 84.12 L 77.32 34.56 L 291.35 248.6 L 286.57 225.65 L 311.49 200.74 L 352.01 309.41 C 371.92 332.32 392.2 354.89 412.84 377.13 C 434.71 400.68 456.93 423.89 479.51 446.76 L 484.78 452.1 L 474.11 462.63 L 468.84 457.3 C 446.15 434.32 423.82 411 401.85 387.34 C 380.78 364.64 360.09 341.6 339.79 318.22 C 339.2 317.54 338.74 316.76 338.43 315.92 L 305.59 227.85 L 302.91 230.53 L 316.3 294.76 L 97.07 75.52 L 97.33 77.84 L 377.83 403.81 L 223.13 386.42 L 223.56 390.07 L 285.91 404.82 L 263.69 442.48 L 270.41 444 L 297.57 416.85 L 399.42 425.83 C 401.15 425.99 402.77 426.73 404.01 427.95 C 419.26 442.89 434.49 457.85 449.71 472.83 Z " fill-rule="evenodd" fill="rgb(255,255,255)"/></g></g></g></svg>